<svg xmlns="http://www.w3.org/2000/svg" width="94.386" height="142.192" viewBox="0 0 94.386 142.192">
  <g id="Group_6626" data-name="Group 6626" transform="translate(-158.477 -87)">
    <g id="Group_3" data-name="Group 3" transform="translate(160.836 118.089)">
      <circle id="Ellipse_1" data-name="Ellipse 1" cx="3.528" cy="3.528" r="3.528" transform="translate(84.971 25.666)" fill="#48c2c5"/>
      <g id="Group_1" data-name="Group 1" transform="translate(8.514 76.335)">
        <circle id="Ellipse_2" data-name="Ellipse 2" cx="3.528" cy="3.528" r="3.528" transform="translate(8.52)" fill="#48c2c5"/>
        <circle id="Ellipse_3" data-name="Ellipse 3" cx="3.528" cy="3.528" r="3.528" fill="#48c2c5"/>
      </g>
      <path id="Path_1" data-name="Path 1" d="M514.789,689.51l-.076-.008a3.262,3.262,0,0,0-3.458,3.3v21.675a4.587,4.587,0,0,1-4.325,4.648,4.463,4.463,0,0,1-4.6-4.46v.6a3.329,3.329,0,0,0-6.656-.147,11.323,11.323,0,0,0,10.58,11.126,11.135,11.135,0,0,0,11.672-11.121V693.164A3.629,3.629,0,0,0,514.789,689.51Z" transform="translate(-425.899 -653.493)" fill="#48c2c5"/>
      <path id="Path_2" data-name="Path 2" d="M502.325,663.45a3.335,3.335,0,1,0-6.67,0v34.356a3.335,3.335,0,1,0,6.67,0V663.45Z" transform="translate(-425.895 -646.506)" fill="#48c2c5"/>
      <path id="Path_3" data-name="Path 3" d="M457.758,682.53a12.735,12.735,0,0,0-12.72,12.719v5.035h-1.865c-7.472,0-10.361,5.514-12.683,9.946-2.611,4.987-4.348,7.807-9.653,7.807-6.447,0-9.855-3.359-9.855-9.712v-6.16a3.43,3.43,0,0,0-6.859,0v6.16c0,10.222,6.405,16.571,16.714,16.571,9.714,0,13.19-6.638,15.729-11.484,2.384-4.55,3.571-6.269,6.606-6.269h1.865v5.033a12.72,12.72,0,1,0,25.44,0V695.249A12.734,12.734,0,0,0,457.758,682.53ZM451.9,695.249a5.861,5.861,0,0,1,11.721,0v5.035H451.9Zm5.861,22.788a5.868,5.868,0,0,1-5.861-5.861v-5.033h11.721v5.033A5.867,5.867,0,0,1,457.758,718.037Z" transform="translate(-404.123 -651.837)" fill="#48c2c5"/>
      <path id="Path_7247" data-name="Path 7247" d="M509.557-708.478H493.232l-5.954,11.14-9.987-25.736-7.49,17.67H455.2" transform="translate(-454.813 723.075)" fill="none" stroke="#d9000d" stroke-linecap="round" stroke-linejoin="round" stroke-width="5.5"/>
    </g>
    <text id="تطبيق" transform="translate(247.772 110)" fill="#544f4f" font-size="18" font-family="Cairo-Bold, Cairo" font-weight="700"><tspan x="-51.408" y="0">تطبيق</tspan></text>
    <text id="أفضل_المعالجين" data-name="أفضل المعالجين" transform="translate(248 222.192)" fill="#0e6f71" font-size="12" font-family="Cairo-Bold, Cairo" font-weight="700"><tspan x="-88.296" y="0">أفضل المعالجين</tspan></text>
  </g>
</svg>
