<svg xmlns="http://www.w3.org/2000/svg" width="146.819" height="158.616" viewBox="0 0 146.819 158.616">
  <g id="logo" transform="translate(-210.9 -171.6)">
    <path id="Path_1710" data-name="Path 1710" d="M380.948,226.465a55.383,55.383,0,0,1,54.933,48.284V242.014L380.948,210.3,326,242.014v32.735A55.409,55.409,0,0,1,380.948,226.465Z" transform="translate(-97.825 -32.892)" fill="#eabe71"/>
    <path id="Path_1711" data-name="Path 1711" d="M357.719,699.5H210.9l7.49,13.1-7.49,13.1H357.719l-7.49-13.1Z" transform="translate(0 -448.667)" fill="#fff"/>
    <g id="Group_1880" data-name="Group 1880" transform="translate(222.847 171.6)">
      <path id="Path_1712" data-name="Path 1712" d="M411.038,248.972h-1.5v-41.71l-58.76-33.921L292,207.262v41.71h-1.5V206.391L350.776,171.6l60.261,34.791Z" transform="translate(-290.5 -171.6)" fill="#eabe71"/>
    </g>
    <g id="Group_1881" data-name="Group 1881" transform="translate(226.584 288.686)">
      <rect id="Rectangle_5772" data-name="Rectangle 5772" width="32.345" height="1.321" transform="translate(80.734)" fill="#fff"/>
      <rect id="Rectangle_5773" data-name="Rectangle 5773" width="32.345" height="1.321" transform="translate(0)" fill="#fff"/>
    </g>
    <g id="Group_1882" data-name="Group 1882" transform="translate(230.952 257.077)">
      <path id="Path_1713" data-name="Path 1713" d="M350.519,747.434h3.212v3.452c-.18.105-.39.225-.645.345a5.017,5.017,0,0,1-.886.315c-.33.09-.705.165-1.141.24a10.216,10.216,0,0,1-1.426.09,7.137,7.137,0,0,1-2.116-.3,4.139,4.139,0,0,1-1.621-.931,4.047,4.047,0,0,1-1.036-1.666,8.8,8.8,0,0,1,0-4.983,4.185,4.185,0,0,1,1.021-1.666,3.976,3.976,0,0,1,1.606-.931,7.135,7.135,0,0,1,2.116-.3,10.063,10.063,0,0,1,1.426.09,7.021,7.021,0,0,1,1.126.24,5.5,5.5,0,0,1,.886.315c.255.12.48.24.675.345v3.332H350.5v-.961a1.043,1.043,0,0,0-.225-.75.922.922,0,0,0-.675-.24.865.865,0,0,0-.675.24,1.044,1.044,0,0,0-.225.75V748.5a1.043,1.043,0,0,0,.225.75.922.922,0,0,0,.675.24.864.864,0,0,0,.675-.24,1.043,1.043,0,0,0,.225-.75v-1.066Z" transform="translate(-344.5 -741.1)" fill="#35200b"/>
      <path id="Path_1714" data-name="Path 1714" d="M431.575,764.987a4.541,4.541,0,0,1-.285,1.711,3.1,3.1,0,0,1-.81,1.216,3.145,3.145,0,0,1-1.276.72,5.9,5.9,0,0,1-3.332,0,3.536,3.536,0,0,1-1.276-.72,3.456,3.456,0,0,1-.81-1.216,4.859,4.859,0,0,1-.285-1.711,4.65,4.65,0,0,1,.285-1.711,2.9,2.9,0,0,1,.81-1.216,3.145,3.145,0,0,1,1.276-.72,5.9,5.9,0,0,1,3.332,0,3.536,3.536,0,0,1,1.276.72,3.456,3.456,0,0,1,.81,1.216A4.541,4.541,0,0,1,431.575,764.987Zm-4.037,1.516a.79.79,0,0,0,.585-.2.892.892,0,0,0,.2-.66v-1.336a.915.915,0,0,0-.2-.66.976.976,0,0,0-1.171,0,.892.892,0,0,0-.2.66v1.336a.915.915,0,0,0,.2.66A.79.79,0,0,0,427.537,766.5Z" transform="translate(-411.643 -758.098)" fill="#35200b"/>
      <path id="Path_1715" data-name="Path 1715" d="M493.8,744.352h.615a2.762,2.762,0,0,1,3.107-3.152,4.838,4.838,0,0,1,1.066.105,4.209,4.209,0,0,1,.825.24v2.1c-.225-.03-.405-.045-.555-.06s-.315-.015-.48-.015a1.1,1.1,0,0,0-.72.18.761.761,0,0,0-.2.6H498.5v2.191h-1.036v3.047H498.5v2.191h-4.7V749.59h.585v-3.047H493.8Z" transform="translate(-471.391 -741.185)" fill="#35200b"/>
      <path id="Path_1716" data-name="Path 1716" d="M541.9,744.352h.615a2.762,2.762,0,0,1,3.107-3.152,4.839,4.839,0,0,1,1.066.105,4.213,4.213,0,0,1,.825.24v2.1c-.225-.03-.405-.045-.555-.06s-.315-.015-.48-.015a1.1,1.1,0,0,0-.72.18.761.761,0,0,0-.2.6H546.6v2.191h-1.036v3.047H546.6v2.191h-4.7V749.59h.585v-3.047H541.9Z" transform="translate(-512.272 -741.185)" fill="#35200b"/>
      <path id="Path_1717" data-name="Path 1717" d="M592.953,761a4.316,4.316,0,0,1,1.711.3,3.014,3.014,0,0,1,1.1.781,2.974,2.974,0,0,1,.585,1.1,4.981,4.981,0,0,1,.165,1.246v.961h-4.323v.075a.928.928,0,0,0,.27.72,1.492,1.492,0,0,0,.991.24,9.074,9.074,0,0,0,1.621-.135,7.167,7.167,0,0,0,1.216-.3v2.131c-.165.075-.345.165-.555.24a6.015,6.015,0,0,1-.72.21c-.27.06-.57.12-.916.165a8.969,8.969,0,0,1-1.156.06,5.253,5.253,0,0,1-1.666-.24,3.536,3.536,0,0,1-1.276-.72,3.458,3.458,0,0,1-.81-1.216,4.86,4.86,0,0,1-.285-1.711,4.648,4.648,0,0,1,.285-1.711,2.894,2.894,0,0,1,.81-1.216,3.145,3.145,0,0,1,1.276-.72A5,5,0,0,1,592.953,761Zm0,2.371a.79.79,0,0,0-.585.2.892.892,0,0,0-.2.66v.075h1.546v-.075a.915.915,0,0,0-.2-.66A.79.79,0,0,0,592.953,763.371Z" transform="translate(-552.218 -758.013)" fill="#35200b"/>
      <path id="Path_1718" data-name="Path 1718" d="M659.552,761a4.315,4.315,0,0,1,1.711.3,3.013,3.013,0,0,1,1.1.781,2.976,2.976,0,0,1,.585,1.1,4.984,4.984,0,0,1,.165,1.246v.961h-4.323v.075a.928.928,0,0,0,.27.72,1.492,1.492,0,0,0,.991.24,9.072,9.072,0,0,0,1.621-.135,7.171,7.171,0,0,0,1.216-.3v2.131c-.165.075-.345.165-.555.24a6.009,6.009,0,0,1-.72.21c-.27.06-.57.12-.916.165a8.969,8.969,0,0,1-1.156.06,5.254,5.254,0,0,1-1.666-.24,3.536,3.536,0,0,1-1.276-.72,3.456,3.456,0,0,1-.811-1.216,4.86,4.86,0,0,1-.285-1.711,4.649,4.649,0,0,1,.285-1.711,2.894,2.894,0,0,1,.811-1.216,3.145,3.145,0,0,1,1.276-.72A5,5,0,0,1,659.552,761Zm0,2.371a.789.789,0,0,0-.585.2.892.892,0,0,0-.2.66v.075h1.546v-.075a.915.915,0,0,0-.2-.66A.79.79,0,0,0,659.552,763.371Z" transform="translate(-608.822 -758.013)" fill="#35200b"/>
      <path id="Path_1719" data-name="Path 1719" d="M768.272,749.31a1.09,1.09,0,0,0,.63-.135.474.474,0,0,0,.18-.405.426.426,0,0,0-.15-.33,2.972,2.972,0,0,0-.615-.33c-.66-.255-1.231-.48-1.726-.72a5.571,5.571,0,0,1-1.231-.75,2.4,2.4,0,0,1-.72-.976,3.271,3.271,0,0,1-.24-1.336,3.42,3.42,0,0,1,.24-1.336,2.389,2.389,0,0,1,.766-1.021,3.652,3.652,0,0,1,1.4-.645,8.844,8.844,0,0,1,2.161-.225,9.339,9.339,0,0,1,2.191.24,6.118,6.118,0,0,1,1.711.615v2.386h-2.822a.6.6,0,0,0-.21-.525.941.941,0,0,0-.525-.135,1.253,1.253,0,0,0-.63.12.409.409,0,0,0-.2.39.345.345,0,0,0,.21.33,4.053,4.053,0,0,0,.615.24c.51.165,1.006.345,1.456.54a5.025,5.025,0,0,1,1.216.69,3.16,3.16,0,0,1,.826,1.006,3.2,3.2,0,0,1,.3,1.441,3.012,3.012,0,0,1-1.126,2.582,5.367,5.367,0,0,1-3.287.855,13.533,13.533,0,0,1-2.371-.21,8.46,8.46,0,0,1-1.816-.51v-2.642h2.942a.955.955,0,0,0,.165.6A.885.885,0,0,0,768.272,749.31Z" transform="translate(-701.377 -741.1)" fill="#35200b"/>
      <path id="Path_1720" data-name="Path 1720" d="M843.838,750.695h.585V748.5a.915.915,0,0,0-.2-.66.976.976,0,0,0-1.171,0,.892.892,0,0,0-.2.66v2.191h.585v2.191H839.2v-2.191h.585v-6H839.2V742.5h3.662v3.872l.36-.36a2.5,2.5,0,0,1,.48-.36,3.306,3.306,0,0,1,.615-.27,2.536,2.536,0,0,1,.8-.12,2.078,2.078,0,0,1,1.726.78,3.883,3.883,0,0,1,.63,2.447v2.191h.585v2.191h-4.248v-2.176Z" transform="translate(-764.95 -742.29)" fill="#35200b"/>
      <path id="Path_1721" data-name="Path 1721" d="M922.175,764.987a4.542,4.542,0,0,1-.285,1.711,3.1,3.1,0,0,1-.81,1.216,3.145,3.145,0,0,1-1.276.72,5.9,5.9,0,0,1-3.332,0,3.536,3.536,0,0,1-1.276-.72,3.454,3.454,0,0,1-.81-1.216,4.857,4.857,0,0,1-.285-1.711,4.649,4.649,0,0,1,.285-1.711,2.894,2.894,0,0,1,.81-1.216,3.145,3.145,0,0,1,1.276-.72,5.9,5.9,0,0,1,3.332,0,3.536,3.536,0,0,1,1.276.72,3.458,3.458,0,0,1,.81,1.216A4.542,4.542,0,0,1,922.175,764.987Zm-4.023,1.516a.79.79,0,0,0,.585-.2.892.892,0,0,0,.2-.66v-1.336a.915.915,0,0,0-.2-.66.976.976,0,0,0-1.171,0,.892.892,0,0,0-.2.66v1.336a.915.915,0,0,0,.2.66A.767.767,0,0,0,918.152,766.5Z" transform="translate(-828.608 -758.098)" fill="#35200b"/>
      <path id="Path_1722" data-name="Path 1722" d="M987.878,771.581H983.3V769.39h.585v-6H983.3V761.2h3.662v.915a3,3,0,0,1,.315-.36,2.94,2.94,0,0,1,.465-.36,3.5,3.5,0,0,1,.585-.27,2.107,2.107,0,0,1,.705-.12,2.279,2.279,0,0,1,2.056,1.021,5.178,5.178,0,0,1,.676,2.882,5.246,5.246,0,0,1-.676,2.882,2.313,2.313,0,0,1-2.056,1.021,2.106,2.106,0,0,1-.705-.12,3.487,3.487,0,0,1-.585-.27,2.263,2.263,0,0,1-.465-.36,2.166,2.166,0,0,1-.315-.36v1.681h.916v2.206Zm.63-7.354a.915.915,0,0,0-.2-.66.975.975,0,0,0-1.171,0,.892.892,0,0,0-.2.66v1.336a.915.915,0,0,0,.2.66.767.767,0,0,0,.585.2.79.79,0,0,0,.585-.2.892.892,0,0,0,.2-.66Z" transform="translate(-887.422 -758.013)" fill="#35200b"/>
    </g>
    <g id="Group_1883" data-name="Group 1883" transform="translate(264.63 287.301)">
      <path id="Path_1723" data-name="Path 1723" d="M571.612,945.091a1.526,1.526,0,0,1,.572.415,1.756,1.756,0,0,1,.332.654,3.151,3.151,0,0,1,.1.867,2.9,2.9,0,0,1-.12.866,2.029,2.029,0,0,1-.35.673,1.638,1.638,0,0,1-.59.433,2.13,2.13,0,0,1-.839.157,2.267,2.267,0,0,1-.83-.138,1.42,1.42,0,0,1-.572-.4,1.742,1.742,0,0,1-.332-.636,3.042,3.042,0,0,1-.1-.857,2.851,2.851,0,0,1,.12-.867,1.992,1.992,0,0,1,.35-.682,1.522,1.522,0,0,1,.6-.442,2.174,2.174,0,0,1,.848-.157A1.518,1.518,0,0,1,571.612,945.091Zm-1.475.931a2.331,2.331,0,0,0-.175,1.014,3.511,3.511,0,0,0,.037.562,1.931,1.931,0,0,0,.129.443.707.707,0,0,0,.258.286.814.814,0,0,0,.415.1.608.608,0,0,0,.571-.35,2.212,2.212,0,0,0,.175-1,3.731,3.731,0,0,0-.037-.572,1.881,1.881,0,0,0-.129-.452.677.677,0,0,0-.258-.295.7.7,0,0,0-.406-.1A.579.579,0,0,0,570.138,946.022Z" transform="translate(-568.884 -944.593)" fill="#fff"/>
      <path id="Path_1724" data-name="Path 1724" d="M599.177,952.879a.568.568,0,0,0-.148.111.5.5,0,0,0-.12.194.69.69,0,0,0-.046.286v1.539H597.9v-1.576a2.708,2.708,0,0,0-.055-.6,2.161,2.161,0,0,0-.12-.387,1,1,0,0,0-.166-.277l.765-.24c.028.037.065.083.1.138s.055.1.092.166a2.359,2.359,0,0,1,.083.24,1.012,1.012,0,0,1,.36-.415.941.941,0,0,1,.489-.129,1.783,1.783,0,0,1,.23.018c.065.018.12.028.166.046l-.249.913a.658.658,0,0,0-.111-.046.488.488,0,0,0-.175-.018A.526.526,0,0,0,599.177,952.879Z" transform="translate(-593.259 -950.51)" fill="#fff"/>
      <path id="Path_1725" data-name="Path 1725" d="M617.173,942.629a.54.54,0,0,1,.129.378.594.594,0,0,1-.138.4.527.527,0,0,1-.406.157.5.5,0,0,1-.387-.157.524.524,0,0,1-.138-.369.618.618,0,0,1,.138-.405.591.591,0,0,1,.8,0Zm-.664,4.194a.633.633,0,0,1-.212-.507v-2.378h.959v2.1a.279.279,0,0,0,.046.184.15.15,0,0,0,.129.046.317.317,0,0,0,.092-.009c.037-.009.055-.009.065-.018l.083.6-.055.028a.994.994,0,0,1-.129.046.9.9,0,0,1-.184.046.947.947,0,0,1-.23.018A.786.786,0,0,1,616.51,946.823Z" transform="translate(-609.126 -942.472)" fill="#fff"/>
      <path id="Path_1726" data-name="Path 1726" d="M629.416,955.374a3.454,3.454,0,0,0,.461.138,1.522,1.522,0,0,0,.424.055.537.537,0,0,0,.387-.138.514.514,0,0,0,.148-.4,1.408,1.408,0,0,0-.083-.5.856.856,0,0,1-.3.424.816.816,0,0,1-.516.148,1.151,1.151,0,0,1-.516-.111,1.071,1.071,0,0,1-.369-.3,1.35,1.35,0,0,1-.212-.479,2.522,2.522,0,0,1-.074-.618,1.859,1.859,0,0,1,.111-.645,1.425,1.425,0,0,1,.313-.507,1.247,1.247,0,0,1,.479-.332,1.477,1.477,0,0,1,.618-.12,2.725,2.725,0,0,1,.378.028c.129.018.258.037.369.055s.212.037.3.055.148.028.175.037l-.028,1.5a1.487,1.487,0,0,0,.037.36,3.3,3.3,0,0,0,.074.322c.028.111.055.221.074.332a1.488,1.488,0,0,1,.037.359,1.288,1.288,0,0,1-.359.977,1.344,1.344,0,0,1-.977.341,2.61,2.61,0,0,1-.581-.065,4.4,4.4,0,0,1-.59-.184Zm.848-1.06a.644.644,0,0,0,.138-.221,1.477,1.477,0,0,0,.092-.323,2.517,2.517,0,0,0,.037-.378v-.664a.636.636,0,0,0-.12-.037.712.712,0,0,0-.129-.018.407.407,0,0,0-.24.065.478.478,0,0,0-.157.175,1.008,1.008,0,0,0-.083.267,1.958,1.958,0,0,0-.028.341c0,.111,0,.221.009.323a1.266,1.266,0,0,0,.037.277.477.477,0,0,0,.092.193.216.216,0,0,0,.166.074A.209.209,0,0,0,630.264,954.314Z" transform="translate(-619.775 -950.562)" fill="#fff"/>
      <path id="Path_1727" data-name="Path 1727" d="M653.653,942.629a.539.539,0,0,1,.129.378.594.594,0,0,1-.138.4.527.527,0,0,1-.406.157.5.5,0,0,1-.387-.157.523.523,0,0,1-.138-.369.618.618,0,0,1,.138-.405.5.5,0,0,1,.415-.157A.534.534,0,0,1,653.653,942.629Zm-.673,4.194a.633.633,0,0,1-.212-.507v-2.378h.959v2.1a.278.278,0,0,0,.046.184.149.149,0,0,0,.129.046.319.319,0,0,0,.092-.009c.037-.009.055-.009.064-.018l.083.6-.055.028a.994.994,0,0,1-.129.046.908.908,0,0,1-.184.046.949.949,0,0,1-.231.018A.8.8,0,0,1,652.98,946.823Z" transform="translate(-640.131 -942.472)" fill="#fff"/>
      <path id="Path_1728" data-name="Path 1728" d="M666.7,955.061v-1.88a.879.879,0,0,0-.055-.341.2.2,0,0,0-.193-.129.393.393,0,0,0-.313.221,1.152,1.152,0,0,0-.147.618v1.521h-.959v-1.576a2.708,2.708,0,0,0-.055-.6,2.172,2.172,0,0,0-.12-.387,1,1,0,0,0-.166-.276l.765-.24a.908.908,0,0,1,.111.138.617.617,0,0,1,.092.175,1.457,1.457,0,0,1,.074.24.9.9,0,0,1,.433-.415,1.323,1.323,0,0,1,.6-.129.764.764,0,0,1,.673.286,1.343,1.343,0,0,1,.2.765v2.028h-.94Z" transform="translate(-650.31 -950.562)" fill="#fff"/>
      <path id="Path_1729" data-name="Path 1729" d="M691.921,953.6a3.723,3.723,0,0,0,.046.608,2.007,2.007,0,0,0,.111.387.789.789,0,0,0,.166.277l-.765.24a.642.642,0,0,1-.12-.147.949.949,0,0,1-.092-.194,1.566,1.566,0,0,1-.074-.267.912.912,0,0,1-.3.443.831.831,0,0,1-.526.157,1.151,1.151,0,0,1-.516-.111,1.071,1.071,0,0,1-.369-.3,1.351,1.351,0,0,1-.212-.479,2.522,2.522,0,0,1-.074-.618,1.861,1.861,0,0,1,.111-.645,1.426,1.426,0,0,1,.313-.507,1.246,1.246,0,0,1,.479-.332,1.477,1.477,0,0,1,.618-.12,2.988,2.988,0,0,1,.4.028c.138.018.267.037.387.065s.212.046.295.065l.12.028V953.6Zm-1.217.719a.607.607,0,0,0,.138-.212,1.475,1.475,0,0,0,.092-.3,2.27,2.27,0,0,0,.037-.369v-.7a.614.614,0,0,0-.12-.037.728.728,0,0,0-.129-.018.405.405,0,0,0-.24.065.478.478,0,0,0-.157.175,1.015,1.015,0,0,0-.083.267,1.959,1.959,0,0,0-.028.341c0,.111,0,.221.009.323a1.254,1.254,0,0,0,.037.276.469.469,0,0,0,.092.194.215.215,0,0,0,.166.074A.293.293,0,0,0,690.7,954.323Z" transform="translate(-671.136 -950.562)" fill="#fff"/>
      <path id="Path_1730" data-name="Path 1730" d="M714.2,947.508a.593.593,0,0,1-.249-.166.85.85,0,0,1-.147-.249,1.056,1.056,0,0,1-.046-.3v-3.475l.959-.166v3.429a.3.3,0,0,0,.055.2.27.27,0,0,0,.194.055.863.863,0,0,0,.148-.009c.055-.009.1-.019.147-.028l.092.6a2.289,2.289,0,0,1-.3.1,1.956,1.956,0,0,1-.479.055A.67.67,0,0,1,714.2,947.508Z" transform="translate(-692.014 -943.047)" fill="#fff"/>
      <path id="Path_1731" data-name="Path 1731" d="M738.569,947.766h.5l.1-.627.83-.185v.8h.71l-.111.7H740V949.8a.242.242,0,0,0,.276.267,1.425,1.425,0,0,0,.286-.028c.046-.009.1-.028.148-.037l.166.645c-.083.028-.193.055-.332.092a2.08,2.08,0,0,1-.525.055,1.2,1.2,0,0,1-.71-.184.735.735,0,0,1-.258-.636v-1.512h-.479v-.7Z" transform="translate(-713.101 -946.282)" fill="#fff"/>
      <path id="Path_1732" data-name="Path 1732" d="M758.739,953.6a3.731,3.731,0,0,0,.046.608,2.006,2.006,0,0,0,.111.387.786.786,0,0,0,.166.277l-.765.24a.64.64,0,0,1-.12-.147.956.956,0,0,1-.092-.194,1.578,1.578,0,0,1-.074-.267.911.911,0,0,1-.3.443.831.831,0,0,1-.526.157,1.15,1.15,0,0,1-.516-.111,1.071,1.071,0,0,1-.369-.3,1.352,1.352,0,0,1-.212-.479,2.525,2.525,0,0,1-.074-.618,1.862,1.862,0,0,1,.11-.645,1.427,1.427,0,0,1,.313-.507,1.246,1.246,0,0,1,.479-.332,1.477,1.477,0,0,1,.618-.12,2.99,2.99,0,0,1,.4.028c.138.018.267.037.387.065s.212.046.295.065l.12.028V953.6Zm-1.226.719a.608.608,0,0,0,.138-.212,1.471,1.471,0,0,0,.092-.3,2.256,2.256,0,0,0,.037-.369v-.7a.614.614,0,0,0-.12-.037.729.729,0,0,0-.129-.018.407.407,0,0,0-.24.065.479.479,0,0,0-.157.175,1.011,1.011,0,0,0-.083.267,1.965,1.965,0,0,0-.028.341c0,.111,0,.221.009.323a1.254,1.254,0,0,0,.037.276.473.473,0,0,0,.092.194.216.216,0,0,0,.166.074A.274.274,0,0,0,757.513,954.323Z" transform="translate(-727.925 -950.562)" fill="#fff"/>
      <path id="Path_1733" data-name="Path 1733" d="M780.343,951.868a2.014,2.014,0,0,1,.424.037,2.749,2.749,0,0,1,.35.092,2.621,2.621,0,0,1,.323.129l-.3.682c-.037-.018-.074-.037-.12-.064a1.431,1.431,0,0,0-.166-.074,1.064,1.064,0,0,0-.184-.064.689.689,0,0,0-.184-.028.319.319,0,0,0-.166.046.14.14,0,0,0-.065.129.254.254,0,0,0,.12.194,1.379,1.379,0,0,0,.332.175,1.739,1.739,0,0,1,.562.359.786.786,0,0,1,.193.562,1.012,1.012,0,0,1-.074.369.878.878,0,0,1-.2.313.976.976,0,0,1-.341.212,1.257,1.257,0,0,1-.47.083,2.659,2.659,0,0,1-.4-.028,3.1,3.1,0,0,1-.341-.074c-.1-.028-.193-.064-.276-.092a.99.99,0,0,1-.194-.083l.313-.691c.018.009.055.028.1.055a1.6,1.6,0,0,0,.175.083,1.457,1.457,0,0,0,.212.074.933.933,0,0,0,.212.037.479.479,0,0,0,.212-.046.156.156,0,0,0,.083-.147.272.272,0,0,0-.1-.2.7.7,0,0,0-.258-.148,1.774,1.774,0,0,1-.654-.405.834.834,0,0,1-.194-.562.927.927,0,0,1,.074-.359.8.8,0,0,1,.212-.286.983.983,0,0,1,.332-.194A1.108,1.108,0,0,1,780.343,951.868Z" transform="translate(-747.602 -950.458)" fill="#fff"/>
      <path id="Path_1734" data-name="Path 1734" d="M797.587,947.766h.5l.1-.627.83-.185v.8h.71l-.111.7h-.6V949.8a.242.242,0,0,0,.277.267,1.429,1.429,0,0,0,.286-.028c.046-.009.1-.028.147-.037l.166.645c-.083.028-.194.055-.332.092a2.132,2.132,0,0,1-.525.055,1.2,1.2,0,0,1-.71-.184.735.735,0,0,1-.258-.636v-1.512h-.479Z" transform="translate(-763.261 -946.282)" fill="#fff"/>
      <path id="Path_1735" data-name="Path 1735" d="M815.044,952.808a1.451,1.451,0,0,1,.323-.516,1.307,1.307,0,0,1,.489-.313,1.623,1.623,0,0,1,.608-.111,1.417,1.417,0,0,1,.479.074.862.862,0,0,1,.323.194.726.726,0,0,1,.184.286,1.13,1.13,0,0,1,.065.36.823.823,0,0,1-.111.415,1.09,1.09,0,0,1-.313.341,1.731,1.731,0,0,1-.489.249,2.654,2.654,0,0,1-.654.129.606.606,0,0,0,.157.295.459.459,0,0,0,.341.111,1.576,1.576,0,0,0,.286-.028c.1-.018.193-.046.276-.064a2.779,2.779,0,0,0,.295-.1l.184.627a2.1,2.1,0,0,1-.359.138,2.82,2.82,0,0,1-.378.092,2.437,2.437,0,0,1-.461.046,1.638,1.638,0,0,1-.636-.111,1.149,1.149,0,0,1-.433-.3,1.135,1.135,0,0,1-.24-.47,2.5,2.5,0,0,1-.074-.608A2.692,2.692,0,0,1,815.044,952.808Zm1.106-.194a.415.415,0,0,0-.129.175,1.028,1.028,0,0,0-.074.24,1.3,1.3,0,0,0-.028.258.75.75,0,0,0,.3-.055.623.623,0,0,0,.2-.12.351.351,0,0,0,.111-.157.544.544,0,0,0,.037-.157.251.251,0,0,0-.065-.184.231.231,0,0,0-.166-.074A.3.3,0,0,0,816.15,952.615Z" transform="translate(-777.98 -950.458)" fill="#fff"/>
    </g>
    <path id="Path_1736" data-name="Path 1736" d="M538.8,339.532c1.351-1.261,5.613-2.972,5.283-7.55a5.739,5.739,0,0,0-1.576-3.782s.705,1.081.48,4.2c-.225,3.242-3.662,4.022-5.418,7.249a4.055,4.055,0,0,0,0,4.158C537.54,343.479,537.315,340.913,538.8,339.532Zm-.826,4.983c-1.051,2.747,2.3,6.649,2.3,6.649s-1.4-4.443-.51-6.529c.8-1.891,7.61-3.9,7.144-8.825a5.641,5.641,0,0,0-2.3-4.067s1.021,1.171.705,4.533C544.985,339.757,539.672,340.1,537.976,344.515Zm32.855,9.936a7.451,7.451,0,0,0-5.808-2.522A7.827,7.827,0,0,0,560.114,354c.06-1.156.09-1.891.09-1.891H516.3s.285,8.69,1.591,13.733c1.321,5.043,7.144,9.861,7.144,9.861h26.416a28.862,28.862,0,0,0,6-7.1,7.325,7.325,0,0,0,1.021.06A17.239,17.239,0,0,0,567,365.9c2.957-1.846,4.8-4.218,5.208-6.664A5.824,5.824,0,0,0,570.83,354.451Zm-10.867,1.966s3.2-3.572,5.974-2.326a8.644,8.644,0,0,0-6.109,4.112Zm-.24,2.6c1.141-1.576,3.3-3.992,5.3-3.992a4.4,4.4,0,0,1,3.437,1.426,2.863,2.863,0,0,1,.705,2.266c-.255,1.561-1.606,3.182-3.8,4.548a14.649,14.649,0,0,1-6.694,2.281A49.933,49.933,0,0,0,559.724,359.014Zm-39.7-5.553c.63-.06,1.246-.09,1.876-.09s1.246.03,1.876.09a10.25,10.25,0,0,1,1.876.33,10.245,10.245,0,0,1-1.876.33c-.63.06-1.246.09-1.876.09s-1.246-.03-1.876-.09a10.245,10.245,0,0,1-1.876-.33A13.269,13.269,0,0,1,520.025,353.46Zm.1,1.561q.923-.09,1.846-.09t1.846.09a9.943,9.943,0,0,1,1.846.33,11.358,11.358,0,0,1-1.846.33q-.923.09-1.846.09t-1.846-.09a9.941,9.941,0,0,1-1.846-.33A11.353,11.353,0,0,1,520.13,355.021Zm.6,1.636a14.648,14.648,0,0,1,1.621-.075c.54,0,1.081.03,1.621.075a10.2,10.2,0,0,1,1.621.285,10.2,10.2,0,0,1-1.621.285,14.65,14.65,0,0,1-1.621.075c-.54,0-1.081-.03-1.621-.075a10.2,10.2,0,0,1-1.621-.285A10.2,10.2,0,0,1,520.73,356.657Zm-.015,1.921c.525-.045,1.051-.075,1.576-.075s1.051.03,1.576.075a9.664,9.664,0,0,1,1.576.285,9.664,9.664,0,0,1-1.576.285c-.525.045-1.051.075-1.576.075s-1.051-.03-1.576-.075a11.532,11.532,0,0,1-1.576-.27A8.333,8.333,0,0,1,520.715,358.578Zm.555,1.951c.465-.045.946-.075,1.411-.075a11.106,11.106,0,0,1,1.411.075,7.748,7.748,0,0,1,1.411.255,9.288,9.288,0,0,1-1.411.255c-.465.045-.946.075-1.411.075a11.1,11.1,0,0,1-1.411-.075,7.747,7.747,0,0,1-1.411-.255A7.523,7.523,0,0,1,521.27,360.53Zm.39,1.651a13.587,13.587,0,0,1,2.552,0,7.584,7.584,0,0,1,1.276.225,7.581,7.581,0,0,1-1.276.225,13.587,13.587,0,0,1-2.552,0,7.581,7.581,0,0,1-1.276-.225A7.326,7.326,0,0,1,521.661,362.181Zm.33,2.026a12.342,12.342,0,0,1,2.432,0,8.6,8.6,0,0,1,1.216.21,6.868,6.868,0,0,1-1.216.21,12.342,12.342,0,0,1-2.432,0,8.581,8.581,0,0,1-1.216-.21A8.6,8.6,0,0,1,521.991,364.207Zm.36,1.366c.36-.03.735-.06,1.1-.06a8.938,8.938,0,0,1,1.1.06,6.992,6.992,0,0,1,1.1.2,6.991,6.991,0,0,1-1.1.2c-.36.03-.735.06-1.1.06a8.933,8.933,0,0,1-1.1-.06,6.992,6.992,0,0,1-1.1-.2A7.314,7.314,0,0,1,522.351,365.573Zm.24,1.126q.5-.045.991-.045t.991.045a4.588,4.588,0,0,1,.991.18,7.636,7.636,0,0,1-.991.18q-.5.045-.991.045t-.991-.045a4.589,4.589,0,0,1-.99-.18A7.631,7.631,0,0,1,522.591,366.7Zm.69,1.351a7.32,7.32,0,0,1,1.621,0,3.846,3.846,0,0,1,.81.15,5.126,5.126,0,0,1-.81.15,7.315,7.315,0,0,1-1.621,0,3.848,3.848,0,0,1-.81-.15A3.846,3.846,0,0,1,523.282,368.049Zm-.27,1.321a3.7,3.7,0,0,1,.69-.12,5.316,5.316,0,0,1,.69-.03c.225,0,.465.015.69.03a5.543,5.543,0,0,1,.69.12,3.7,3.7,0,0,1-.69.12,5.316,5.316,0,0,1-.69.03c-.225,0-.465-.015-.69-.03A2.782,2.782,0,0,1,523.011,369.37Zm1.741,1.306a2.417,2.417,0,0,1-.555-.105c.18-.045.375-.075.555-.105.18-.015.375-.03.555-.03s.375.015.555.03a2.416,2.416,0,0,1,.555.105c-.18.045-.375.075-.555.105-.18.015-.375.03-.555.03C525.113,370.691,524.933,370.691,524.753,370.676Zm2,1.366a4.329,4.329,0,0,1-.72,0,3,3,0,0,1-.36-.06,3,3,0,0,1,.36-.06,4.338,4.338,0,0,1,.72,0,3.009,3.009,0,0,1,.36.06A3.008,3.008,0,0,1,526.749,372.042Zm29.388-6.934a14.265,14.265,0,0,1-2.356,4.473l-5.553,5.688-.165-.015H546.08l.03-.03-14.424-.5,8.615-.12-8.615-.69,7.249-.12-7.249-.585,9.756-.15-9.756-.8,10.191-.165-9.666-.78,14.094-.225-13.553-1.051,14.5-.225-11.317-1.036,15.174-.27V368.5l-14.289-1.321,12.458-.225-11.887-1.1,14.8-.27L538.2,364.3l14.334-.255c.015-.09.03-.18.045-.285l-13.958-1.351,14.169-.27c0-.075.015-.135.015-.21l-14.619-1.411,14.754-.27a.563.563,0,0,1,.015-.15l-14.349-1.456,13.328-.27L539.551,357.3l13.508-.225v-.135l-11.992-1.126,11.992-.225v-.12l-10.281-.961,10.251-.18v-.09l-8.915-.84,8.885-.165h4.788A65.423,65.423,0,0,1,556.136,365.107Zm15.234-4.743c-.54,2.086-4.338,5.058-6.679,6.064-2.522,1.081-5.328,1.831-6.574,1.576l.255-.916a18.832,18.832,0,0,0,8.6-2.807,8.021,8.021,0,0,0,4.158-7.85A6.725,6.725,0,0,1,571.371,360.364Zm-49.5,20.758h35c3.722,0,9.471-4.308,9.471-4.308H512.4S518.133,381.122,521.871,381.122Zm15.91-1.621,14.709-.33L539.7,378.6l13.343-.135-10.056-.615h18.1s-3.332,2.627-4.983,2.627H526.494l23.879-.57Z" transform="translate(-256.248 -133.096)" fill="#fff"/>
    <g id="Group_1884" data-name="Group 1884" transform="translate(222.787 281.707)">
      <path id="Path_1737" data-name="Path 1737" d="M350.436,953.709,290.1,918.873V905.2h1.651v12.728L350.436,951.8l58.685-33.875V905.2h1.651v13.673l-.42.24Z" transform="translate(-290.1 -905.2)" fill="#eabe71"/>
    </g>
    <path id="Path_1738" data-name="Path 1738" d="M642.268,508.154c1.156-2.6,2.056-14.454,2.056-14.454H613s5.1,1.051,5.9,1.351,1.651,4.308.856,8.96-3.047,4.248-5.1,5.749c-1.651,1.2-1.156,5.1-.886,6.6H635.2C636.879,514.908,641.232,510.51,642.268,508.154Zm-8.705,7.775h-1.981l.03-.03-14.424-.5,8.615-.12-8.615-.69,7.249-.12-7.249-.585,9.756-.15-9.756-.8,10.191-.165-9.666-.78,14.094-.225-13.553-1.066,14.5-.225-11.317-1.036,15.174-.27v-.015l-14.289-1.321,12.458-.225-11.887-1.1,14.8-.27L623.7,504.957l14.334-.255c.015-.09.03-.18.045-.285l-13.958-1.351,14.169-.27c0-.075.015-.135.015-.21l-14.619-1.411,14.754-.27a.563.563,0,0,1,.015-.15L624.107,499.3l13.328-.27-12.383-1.066,13.508-.225V497.6l-11.992-1.126,11.992-.225v-.12l-10.281-.961,10.251-.18v-.09l-8.915-.841,8.885-.165h4.788a66.827,66.827,0,0,1-1.651,11.842,14.263,14.263,0,0,1-2.356,4.473l-5.553,5.688Z" transform="translate(-341.749 -273.756)" fill="#eabe71"/>
    <path id="Path_1739" data-name="Path 1739" d="M828.565,496.409c.33-.345,3.317-3.467,5.944-2.3a8.652,8.652,0,0,0-6.094,4.082l-.015.18c2.476-2.837,3.752-3.932,6.169-3.692a4.348,4.348,0,0,1,3.362,2.537,4.309,4.309,0,0,0-3.167-4.158c-2.747-.705-6.079,2.131-6.079,2.131Z" transform="translate(-524.819 -273.118)" fill="#eabe71"/>
    <path id="Path_1740" data-name="Path 1740" d="M579.5,657.7c3.227,2.1.675,2.3.465,2.837-.075.2.285.42.781.63H613a21.689,21.689,0,0,0,7.55-3.467Zm4.037,2.822,23.879-.57-12.593-.42,14.709-.33-12.788-.57,13.343-.135-10.056-.615h18.1s-3.332,2.627-4.983,2.627Z" transform="translate(-313.277 -413.141)" fill="#eabe71"/>
  </g>
</svg>
