<svg xmlns="http://www.w3.org/2000/svg" width="199.74" height="174.801" viewBox="0 0 199.74 174.801">
  <g id="Group_5581" data-name="Group 5581" transform="translate(-37.758 -48.569)">
    <g id="Shadows" transform="translate(47.59 182.689)">
      <ellipse id="Shadow" cx="30.252" cy="17.466" rx="30.252" ry="17.466" transform="translate(118.457)" fill="#e6e6e6"/>
      <ellipse id="Shadow-2" data-name="Shadow" cx="34.163" cy="19.724" rx="34.163" ry="19.724" transform="translate(55.833 1.232)" fill="#e6e6e6"/>
      <ellipse id="Shadow-3" data-name="Shadow" cx="30.252" cy="17.466" rx="30.252" ry="17.466" transform="translate(0)" fill="#e6e6e6"/>
    </g>
    <g id="Plants" transform="translate(41.333 147.005)">
      <g id="Plants-2" data-name="Plants" transform="translate(0 1.893)">
        <g id="Group_5498" data-name="Group 5498">
          <g id="Group_5496" data-name="Group 5496">
            <path id="Path_6714" data-name="Path 6714" d="M71.737,288.076c.366-4.17-1.892-13.073-5.743-18.868s-10.308-10.352-15.286-9.123c-4.637,1.145-4.668,7.093.45,11.485s12.9,10.03,14.7,17.005l4.311,8.743Z" transform="translate(-47.273 -259.884)" fill="#27debf"/>
            <path id="Path_6715" data-name="Path 6715" d="M71.737,288.076c.366-4.17-1.892-13.073-5.743-18.868s-10.308-10.352-15.286-9.123c-4.637,1.145-4.668,7.093.45,11.485s12.9,10.03,14.7,17.005l4.311,8.743Z" transform="translate(-47.273 -259.884)" opacity="0.1"/>
          </g>
          <g id="Group_5497" data-name="Group 5497" transform="translate(5.132 2.848)">
            <path id="Path_6716" data-name="Path 6716" d="M77.221,296.96a.306.306,0,0,1-.253-.269c-1.543-14.48-12.042-27.063-18.71-30.225a.306.306,0,0,1-.146-.407.3.3,0,0,1,.407-.145c6.8,3.222,17.491,16.013,19.056,30.713a.305.305,0,0,1-.271.336A.291.291,0,0,1,77.221,296.96Z" transform="translate(-58.083 -265.882)" fill="#fff"/>
          </g>
        </g>
        <g id="Group_5501" data-name="Group 5501" transform="translate(1.22 18.194)">
          <g id="Group_5499" data-name="Group 5499">
            <path id="Path_6717" data-name="Path 6717" d="M69.969,322.862c-.464-2.4-2.987-6.523-7.338-10.125-4.812-3.985-11.153-6.18-12.406-9.062-1.505-3.463,1.555-6.341,6.76-5.226s13.827,9.108,14.356,20.048Z" transform="translate(-49.842 -298.205)" fill="#27debf"/>
          </g>
          <g id="Group_5500" data-name="Group 5500" transform="translate(4.393 2.843)">
            <path id="Path_6718" data-name="Path 6718" d="M76.064,323.636a.306.306,0,0,1-.245-.225C72.525,310.833,63.6,305.735,59.335,304.8a.306.306,0,0,1-.233-.364.3.3,0,0,1,.365-.233c4.711,1.037,13.581,6.218,16.944,19.057a.306.306,0,0,1-.218.373A.3.3,0,0,1,76.064,323.636Z" transform="translate(-59.095 -304.192)" fill="#fff"/>
          </g>
        </g>
      </g>
      <g id="Plants-3" data-name="Plants" transform="translate(163.536)">
        <g id="Group_5504" data-name="Group 5504">
          <g id="Group_5502" data-name="Group 5502">
            <path id="Path_6719" data-name="Path 6719" d="M391.755,291.581c-.385-4.382,2.134-18.48,6.181-24.57s11.363-12.232,16.594-10.941c4.872,1.2,4.9,7.453-.473,12.069s-13.55,10.538-15.449,17.868L393.869,298.4Z" transform="translate(-391.716 -255.897)" fill="#27debf"/>
            <path id="Path_6720" data-name="Path 6720" d="M391.755,291.581c-.385-4.382,2.134-18.48,6.181-24.57s11.363-12.232,16.594-10.941c4.872,1.2,4.9,7.453-.473,12.069s-13.55,10.538-15.449,17.868L393.869,298.4Z" transform="translate(-391.716 -255.897)" opacity="0.1"/>
          </g>
          <g id="Group_5503" data-name="Group 5503" transform="translate(0.546 2.954)">
            <path id="Path_6721" data-name="Path 6721" d="M393.242,294.773a.322.322,0,0,0,.266-.283c1.62-15.215,12.652-28.436,19.659-31.758a.321.321,0,1,0-.275-.581c-7.14,3.385-18.378,16.825-20.023,32.271a.322.322,0,0,0,.373.351Z" transform="translate(-392.867 -262.119)" fill="#fff"/>
          </g>
        </g>
        <g id="Group_5507" data-name="Group 5507" transform="translate(2.321 18.196)">
          <g id="Group_5505" data-name="Group 5505" transform="translate(0.23)">
            <path id="Path_6722" data-name="Path 6722" d="M398.53,321.012c.488-2.525,2.519-6.815,6.8-10.93,5.236-5.039,13.6-7.5,14.912-10.525,1.581-3.638-1.4-6.354-6.815-4.968-7.286,1.864-15.779,10.34-16.335,21.835Z" transform="translate(-397.088 -294.221)" fill="#27debf"/>
          </g>
          <g id="Group_5506" data-name="Group 5506" transform="translate(0 2.643)">
            <path id="Path_6723" data-name="Path 6723" d="M396.979,321.445a.321.321,0,0,0,.257-.236c3.462-13.217,14.669-19.8,19.146-20.786a.322.322,0,0,0,.245-.383.316.316,0,0,0-.383-.245c-4.951,1.09-16.1,7.76-19.629,21.251a.322.322,0,0,0,.365.4Z" transform="translate(-396.604 -299.787)" fill="#fff"/>
          </g>
        </g>
      </g>
    </g>
    <g id="Character_3" data-name="Character 3" transform="translate(170.088 51.017)">
      <g id="Character">
        <g id="Group_5508" data-name="Group 5508" transform="translate(29.863 21.888)">
          <path id="Path_6724" data-name="Path 6724" d="M392.157,124.146a108.524,108.524,0,0,1-7.8-10.062l-3-10.392c-.073.029,1.53.035,2.013.005,3.24.217,4.2.492,6.213,2.7,1.6,1.753,7.525,10.96,9.649,13.765l5.822-8.042c1.35-2.044,1.131-4.329,1.833-6s1.834-2.4,2.741-3.912,1.123-2.49,1.868-1.722-.114,2.849-.227,3.323-1.247,1.882.65,1.15,4.83-4.2,5.587-4.913,1.154.389.983,1.256.644,2.828.349,4.265a5.846,5.846,0,0,1-2.007,3.7c-1.369,1.379-4.719,3.069-6.029,4.877s-4.106,7.433-5.815,10.822c-2.172,4.307-4.558,6.756-7.366,4.347C395.465,127.469,393.244,125.266,392.157,124.146Z" transform="translate(-381.356 -99.825)" fill="#ffbda7"/>
          <path id="Path_6725" data-name="Path 6725" d="M388.324,107.83c2.481.227,3.817.794,6.276,4.039s8.233,11.8,8.233,11.8l4.969-6.082a23.94,23.94,0,0,1,5.243,5.655s-4.811,8.085-6.736,10.111-3.421,2.2-6.041,0-10.211-10.538-10.211-10.538Z" transform="translate(-385.016 -104.029)" fill="#f0f0f0"/>
          <path id="Path_6726" data-name="Path 6726" d="M416.541,140.234a9.779,9.779,0,0,0-1.656,5.608s-1.566-1.806,1.073-6.47Z" transform="translate(-398.723 -120.596)" fill="#e0e0e0"/>
        </g>
        <g id="Group_5509" data-name="Group 5509" transform="translate(9.324 66.066)">
          <path id="Path_6727" data-name="Path 6727" d="M342.181,351.843h5.646l1.125-9.993h-6.771Z" transform="translate(-340.242 -271.118)" fill="#ffbda7"/>
          <path id="Path_6728" data-name="Path 6728" d="M380.468,329.881l6.016.2-.107-10.348-6.8-.13Z" transform="translate(-359.881 -259.432)" fill="#ffbda7"/>
          <path id="Path_6729" data-name="Path 6729" d="M340.1,193.265c-.11,5.48-1.27,41.741-1.27,41.741a80.369,80.369,0,0,0-.719,8.934c-.15,7.244,1.367,24.44,1.367,24.44.336,1.564,6.176,2.2,6.949.787,0,0,3.19-24.945,4.095-32.114.79-6.257,3.394-26.717,3.394-26.717l2.016,20.089a62.642,62.642,0,0,0,.158,7.041c.235,3.316,1.9,22.884,1.9,22.884.029,1.218,6.1,2.228,7.123.429,0,0,1.92-28.564,1.978-31.606.067-3.469-.417-36.3-.417-36.3Z" transform="translate(-338.097 -192.873)" fill="#37474f"/>
          <path id="Path_6730" data-name="Path 6730" d="M346.64,355.911l.1-.853c.312-.007.448.352.575,1.1a16.346,16.346,0,0,0,1.5,4.6,22.929,22.929,0,0,0,3.408,5.168,22.316,22.316,0,0,1,1.813,2.089c.353.628.477,2.375-.122,2.775-2.2,1.469-5.551,1.51-7.919.817a4.542,4.542,0,0,1-3.437-3.863c-.386-2.156-.586-3.488-1.685-5.12a11.051,11.051,0,0,1-1.328-1.747,6,6,0,0,1,.216-3.745c.271-1.032.564-2.167.916-2.071,0,.126,0,.637,0,.637a5.713,5.713,0,0,0,3.23.987C344.756,356.72,346.648,356.563,346.64,355.911Z" transform="translate(-338.733 -278.055)" fill="#263238"/>
          <path id="Path_6731" data-name="Path 6731" d="M385.568,337.69c.148.1.49.493,1.094,1.053a21.929,21.929,0,0,0,1.948,1.505,36.253,36.253,0,0,0,4.331,2.719c1.791.981,3.4,1.582,5.543,2.547a1.739,1.739,0,0,1,.6.4,1.2,1.2,0,0,1,.261.532,2.221,2.221,0,0,1-.9,2.139,5.887,5.887,0,0,1-2.235.951,11.5,11.5,0,0,1-5.577.167,15.765,15.765,0,0,1-4.48-2.071,10,10,0,0,0-3.833-1.645c-1.2-.175-2.679-.116-3.72-.834-1.158-.8-.695-2.5-.367-3.966.357-1.6.438-4.037,1.166-3.985l.056.639c.064.69,1.735,1.007,3.029,1.008,1.072,0,3.1-.279,3.091-.784C385.578,338.063,385.568,337.7,385.568,337.69Z" transform="translate(-358.983 -268.675)" fill="#263238"/>
          <path id="Path_6732" data-name="Path 6732" d="M372.027,209.108a18.311,18.311,0,0,0,6.161-3.959s-.982,2.872-5.015,5.234l.265,25.02-2.032-18.621Z" transform="translate(-355.591 -199.321)" fill="#263238"/>
        </g>
        <g id="Group_5510" data-name="Group 5510" transform="translate(9.331 24.92)">
          <path id="Path_6733" data-name="Path 6733" d="M349.2,106.365c-1.023.246-4.273,1.121-6.91,2.051a7.36,7.36,0,0,0-3.33,2.548c-1.915,2.8-.187,9.009,1.222,20.718-.108,7.56-.325,16.958-.325,16.958,3.476,2.532,19.691,4.253,27.006-1.089,0,0,.242-28.371-.241-32.06-.925-7.061-3.69-8.948-9.4-9.28Z" transform="translate(-338.111 -106.211)" fill="#27debf"/>
          <path id="Path_6734" data-name="Path 6734" d="M349.2,106.365c-1.023.246-4.273,1.121-6.91,2.051a7.36,7.36,0,0,0-3.33,2.548c-1.915,2.8-.187,9.009,1.222,20.718-.108,7.56-.325,16.958-.325,16.958,3.476,2.532,19.691,4.253,27.006-1.089,0,0,.242-28.371-.241-32.06-.925-7.061-3.69-8.948-9.4-9.28Z" transform="translate(-338.111 -106.211)" fill="#48c2c5" opacity="0.6"/>
        </g>
        <g id="Group_5511" data-name="Group 5511" transform="translate(25.481 29.021)">
          <path id="Path_6735" data-name="Path 6735" d="M379.269,123.634c.515,1.766,3.547,14.175,3.12,18.546a27.111,27.111,0,0,1-1.8,6.524c-1.316,3.11-2.192.327-2.926-1.51a23.255,23.255,0,0,1-1.233-5.305c-.243-2.344.7-9.473.338-17.826A1.8,1.8,0,0,1,379.269,123.634Z" transform="translate(-374.364 -119.293)" fill="#27debf"/>
          <path id="Path_6736" data-name="Path 6736" d="M379.269,123.634c.515,1.766,3.547,14.175,3.12,18.546a27.111,27.111,0,0,1-1.8,6.524c-1.316,3.11-2.192.327-2.926-1.51a23.255,23.255,0,0,1-1.233-5.305c-.243-2.344.7-9.473.338-17.826A1.8,1.8,0,0,1,379.269,123.634Z" transform="translate(-374.364 -119.293)" opacity="0.2"/>
          <path id="Path_6737" data-name="Path 6737" d="M377.146,115.206c1.2,1.026-.113,3.983-.113,3.983a3.406,3.406,0,0,0-2.5.428s-2.4-1.024-2.4-2.8c0-1.614,1.715-1.1,2.936-1.309C376.357,115.287,377,114.341,377.146,115.206Z" transform="translate(-372.128 -114.848)" fill="#27debf"/>
          <path id="Path_6738" data-name="Path 6738" d="M377.146,115.206c1.2,1.026-.113,3.983-.113,3.983a3.406,3.406,0,0,0-2.5.428s-2.4-1.024-2.4-2.8c0-1.614,1.715-1.1,2.936-1.309C376.357,115.287,377,114.341,377.146,115.206Z" transform="translate(-372.128 -114.848)" opacity="0.2"/>
          <path id="Path_6739" data-name="Path 6739" d="M377.033,119.971c-.2-.694-1.14-.629-1.892-.866a2.045,2.045,0,0,1-1.015-.872c-.387-.671-.006-1.782.544-1.9h0c-1.166.082-2.545-.182-2.542,1.265,0,1.773,2.4,2.8,2.4,2.8A3.4,3.4,0,0,1,377.033,119.971Z" transform="translate(-372.128 -115.63)" opacity="0.2"/>
        </g>
        <g id="Group_5517" data-name="Group 5517" transform="translate(14.624)">
          <g id="Group_5512" data-name="Group 5512">
            <path id="Path_6740" data-name="Path 6740" d="M365.071,63.6a7.389,7.389,0,1,0,7.211-7.563A7.389,7.389,0,0,0,365.071,63.6Z" transform="translate(-357.563 -54.935)" fill="#455a64"/>
            <path id="Path_6741" data-name="Path 6741" d="M354,83.3a63.891,63.891,0,0,0,1.833,6.507,2.549,2.549,0,0,0,1.5,1.152L357.157,87Z" transform="translate(-351.75 -69.257)" fill="#455a64"/>
            <path id="Path_6742" data-name="Path 6742" d="M353.729,66.238a2.773,2.773,0,0,0-2.275.862c-.961,1.031-.336,4.171.965,7.231l2.261.205Z" transform="translate(-350.167 -60.29)" fill="#455a64"/>
            <path id="Path_6743" data-name="Path 6743" d="M354.448,70.43c-.446.281-1.111-.572-1.683-1.142a1.963,1.963,0,0,0-3.273.611c-.878,1.972.91,4.507,2.354,4.923,2.488.716,2.821-.877,2.821-.877l.423,10.084h0c1.76,2.148,5.906,2.269,7.963,1.853,1.641-.333,1.668-1.5.048-3.284l-.076-2.889a15.589,15.589,0,0,0,3.333.091c1.809-.324,2.925-1.783,3.422-3.763.76-3.024.946-6.4.186-11.928-.935-6.794-8.9-6.669-13.114-3.876S354.448,70.43,354.448,70.43Z" transform="translate(-349.26 -56.198)" fill="#ffbda7"/>
            <path id="Path_6744" data-name="Path 6744" d="M357.969,68.717c-.227.009-1.127-1.4-1.7-1.9-.8-.691.055-7.141.055-7.141a3.118,3.118,0,0,1,.454-3.482c1.04-1.2,2.5-2.673,7.358-2.215,3.465.326,7.252,1.314,10.255-.252a5.173,5.173,0,0,1-1.67,5.537,10.392,10.392,0,0,1-3.967,1.157,42.8,42.8,0,0,1-8.019.039c-.841-.095-1,.723-1.4,2.955C358.983,65.371,358.732,68.683,357.969,68.717Z" transform="translate(-352.762 -53.724)" fill="#455a64"/>
            <path id="Path_6745" data-name="Path 6745" d="M353.732,64.763l-2.769-1.4a1.507,1.507,0,0,1,2.053-.734A1.631,1.631,0,0,1,353.732,64.763Z" transform="translate(-350.154 -58.315)" fill="#455a64"/>
            <path id="Path_6746" data-name="Path 6746" d="M369.94,99.559a31.126,31.126,0,0,1-5.509-1.44,4.671,4.671,0,0,1-2.005-1.892,6.389,6.389,0,0,0,1.168,2.26c1.068,1.3,6.374,2.231,6.374,2.231Z" transform="translate(-356.175 -76.048)" fill="#f0997a"/>
          </g>
          <g id="Group_5513" data-name="Group 5513" transform="translate(9.996 9.592)">
            <path id="Path_6747" data-name="Path 6747" d="M373.579,80.629a.813.813,0,1,1-.768-.887A.826.826,0,0,1,373.579,80.629Z" transform="translate(-371.176 -76.981)" fill="#263238"/>
            <path id="Path_6748" data-name="Path 6748" d="M372.193,74.517l-1.786.869a1.042,1.042,0,0,1,.476-1.361A.969.969,0,0,1,372.193,74.517Z" transform="translate(-370.314 -73.928)" fill="#263238"/>
            <path id="Path_6749" data-name="Path 6749" d="M376.319,93.132l2.534.693a1.29,1.29,0,0,1-1.589.965A1.375,1.375,0,0,1,376.319,93.132Z" transform="translate(-373.447 -84.014)" fill="#f0997a"/>
            <path id="Path_6750" data-name="Path 6750" d="M389.889,75.272,388,74.623a.961.961,0,0,1,1.238-.642A1.051,1.051,0,0,1,389.889,75.272Z" transform="translate(-379.601 -73.928)" fill="#263238"/>
            <path id="Path_6751" data-name="Path 6751" d="M388.234,80.273a.813.813,0,1,1-.887-.769A.826.826,0,0,1,388.234,80.273Z" transform="translate(-378.874 -76.855)" fill="#263238"/>
            <path id="Path_6752" data-name="Path 6752" d="M380.773,80.157l.293,4.886,2.547-.883Z" transform="translate(-375.807 -77.199)" fill="#f0997a"/>
          </g>
          <g id="Group_5516" data-name="Group 5516" transform="translate(3.912 23.085)">
            <g id="Group_5515" data-name="Group 5515">
              <g id="Group_5514" data-name="Group 5514">
                <path id="Path_6753" data-name="Path 6753" d="M367.381,108.944c-2.257-.474-7.586-2.561-8.1-5.168l-.066-1.431c-.875-.009-1.278.977-1.706,2.376-.181,3.684,3.7,7.048,7.609,7.955a6.76,6.76,0,0,1,.861-2.421A3.293,3.293,0,0,1,367.381,108.944Z" transform="translate(-357.5 -102.346)" fill="#27debf"/>
                <path id="Path_6754" data-name="Path 6754" d="M378.273,104.041a3.842,3.842,0,0,1,1.575.942c2.922,3.024,1.255,6.991,1.255,6.991a2.92,2.92,0,0,0-1.066-1.66,2.782,2.782,0,0,0-1.746-.48c.717-.765.434-2.1.048-3.284Z" transform="translate(-368.41 -103.236)" fill="#27debf"/>
              </g>
            </g>
          </g>
          <path id="Path_6755" data-name="Path 6755" d="M374.012,76.342c-.126-.015-.258-.029-.394-.042a13.028,13.028,0,0,0-3.957.126,13,13,0,0,1-2.431.738,13.622,13.622,0,0,1-2.538-.723,14.771,14.771,0,0,0-4.22-.1c-.147.014-.29.028-.426.044L354,78.018a2.346,2.346,0,0,1,1.359.715l4.4-1.2c.063.084.125.159.167.214a.819.819,0,0,1,.128.293,11.359,11.359,0,0,0,.441,2.012,2.406,2.406,0,0,0,.514.722,2.08,2.08,0,0,0,.268.213c.051.033.1.064.156.1a2.508,2.508,0,0,0,.467.2c.026.009.052.017.079.023l.125.033.131.028a3.4,3.4,0,0,0,.417.057c.057.006.117.01.179.013s.147,0,.225,0A3.048,3.048,0,0,0,366,79.933c.46-.763.388-1.843,1.188-1.843.027,0,.052,0,.076,0a.608.608,0,0,1,.07.01c.586.122.478,1.111.824,1.822a2.756,2.756,0,0,0,.538.777c.042.042.084.081.131.12.023.02.046.038.07.056s.048.037.074.054.044.031.067.046l.073.046.058.033.04.023a2.629,2.629,0,0,0,.682.246l.064.013a4.036,4.036,0,0,0,.842.074,2.554,2.554,0,0,0,2.5-1.405,12.086,12.086,0,0,0,.57-2.016.623.623,0,0,1,.158-.265,1.382,1.382,0,0,0,.394-.744A.587.587,0,0,0,374.012,76.342Zm-8.431,2.874a2.288,2.288,0,0,1-.641,1.065h0a2.685,2.685,0,0,1-1.914.612,2.121,2.121,0,0,1-1.789-.77c-.019-.026-.038-.051-.055-.076s-.035-.05-.05-.075-.029-.047-.042-.071-.024-.042-.034-.064a.514.514,0,0,1-.026-.051.506.506,0,0,1-.022-.046l-.034-.076h0a2.2,2.2,0,0,1-.083-.223l0-.006c-.014-.046-.028-.09-.039-.133-.021-.078-.038-.151-.052-.215,0-.014-.006-.028-.009-.041l-.009-.039c-.114-.533-.234-1.581.073-1.818a3.789,3.789,0,0,1,2.392-.376c.044,0,.09.006.137.011.2.02.394.049.587.089.076.015.152.032.227.05a5.565,5.565,0,0,1,.568.165c.061.021.119.043.173.065s.129.053.188.081l.038.018c.024.011.047.022.068.035a1.114,1.114,0,0,1,.376.278A2.158,2.158,0,0,1,365.581,79.216Zm7.542-.249a2.394,2.394,0,0,1-1.283,1.712,2.533,2.533,0,0,1-.968.191,2.115,2.115,0,0,1-1.9-.793l-.005-.008c-.012-.017-.024-.033-.034-.048l-.037-.057c-.006-.009-.012-.019-.018-.029-.017-.028-.032-.057-.047-.085s-.033-.065-.048-.1c-.008-.016-.015-.032-.022-.048s-.007-.018-.011-.027-.011-.027-.016-.04-.009-.021-.012-.031a2.4,2.4,0,0,1-.109-.4,2.322,2.322,0,0,1,.1-1.612,3.907,3.907,0,0,1,2.143-.8q.318-.036.595-.041h.146c.07,0,.14,0,.206,0l.075,0c.033,0,.066,0,.1.007.056,0,.109.009.161.016.105.012.2.028.3.047l.07.015.018,0,.047.011c.023,0,.048.012.07.019l.085.025c.05.016.1.032.139.05l.024.009a1.136,1.136,0,0,1,.312.179C373.465,77.383,373.269,78.433,373.123,78.967Z" transform="translate(-351.75 -65.535)" fill="#37474f"/>
        </g>
        <path id="Path_6756" data-name="Path 6756" d="M348.189,105.693s1.717,8.626,2.461,14.461.6,22.3.205,32.759c-.289,7.615-1.427,21.69-1.427,21.69s-1.879.379-6.416-.37a17.7,17.7,0,0,1-6.647-2.279s.717-21.4,1.259-28.872c.5-6.891.482-10.681.482-10.681l-1.625-15.728s.122-9.883,3.191-10.3C342.856,105.939,348.189,105.693,348.189,105.693Z" transform="translate(-327.863 -81.019)" fill="#fafafa"/>
        <path id="Path_6757" data-name="Path 6757" d="M354.879,119.707c.016-.363-.034-1.142-.1-2.128-.306-4.82.134-11.792,1.762-12.143l.143.664c-1.191.257-1.376,9.093-1.227,11.435.064,1.007.114,1.8.1,2.2Z" transform="translate(-337.489 -80.884)" fill="#48c2c5"/>
        <g id="Group_5518" data-name="Group 5518" transform="translate(0 25.353)">
          <path id="Path_6758" data-name="Path 6758" d="M330.637,204.3c-.786-1.337-.827-2.33-2.008-3.523a3.975,3.975,0,0,1-1.069-1.781,13.255,13.255,0,0,1-.429-3.352l-6.86.316a43.313,43.313,0,0,0,.843,7.594c1.3,5.732,2.562,8.141,5.025,8.7,3.93.887,4.9-.8,3.516-3.643a14.136,14.136,0,0,1-1.26-3.741,7.056,7.056,0,0,0,1.466,1.309,1.38,1.38,0,0,0,1.865-.205C331.9,205.722,331.252,205.345,330.637,204.3Z" transform="translate(-319.411 -153.614)" fill="#ffbda7"/>
          <path id="Path_6759" data-name="Path 6759" d="M331.515,107.123s-3.647-.055-5.691,1.789-3.132,6.772-4.461,11.711a94.259,94.259,0,0,0-2.848,13.175c-.293,2.871.666,17.975.666,17.975s4.175.879,7.383-.879l.135-16.788,5.3-16.822A15.807,15.807,0,0,0,331.515,107.123Z" transform="translate(-318.459 -107.123)" fill="#f0f0f0"/>
        </g>
        <path id="Path_6760" data-name="Path 6760" d="M357.967,99.747c-.479-.1-.916.154-1.306.817s-1.25,2.062-1.25,2.062-.442,4.634,0,5.784c.383,1,2.935,5.712,2.935,5.712s-.168,4.581-.207,5.945,2.606,7.074,2.9,9.726c0,0,.131-10.774-.262-13.767-.684-5.208-1.54-11.441-2.692-13.575Z" transform="translate(-337.764 -77.885)" fill="#ebebeb"/>
        <g id="Group_5524" data-name="Group 5524" transform="translate(14.492 38.257)">
          <g id="Group_5519" data-name="Group 5519" transform="translate(0.122 0.119)">
            <path id="Path_6761" data-name="Path 6761" d="M351.04,150.982h-.057l.018-.475a3.08,3.08,0,0,0,1.56-.58,5.811,5.811,0,0,1-1.3-1.175c-.766-.99-2.444-8.067-1.926-9.716.434-1.382,1.791-4.429,3-4.481h.031c1.206,0,2.794,2.882,3.338,4.211.656,1.6-.415,8.793-1.094,9.844a5.8,5.8,0,0,1-1.192,1.281,2.99,2.99,0,0,0,1.6.445l.058.472a3.693,3.693,0,0,1-2.079-.6A3.8,3.8,0,0,1,351.04,150.982Zm1.332-15.953h-.015c-.71.03-1.985,2.294-2.566,4.148-.475,1.515,1.138,8.363,1.849,9.282a5.512,5.512,0,0,0,1.339,1.17,5.528,5.528,0,0,0,1.234-1.28c.631-.975,1.657-7.936,1.054-9.4C354.536,137.159,353.089,135.029,352.373,135.029Z" transform="translate(-349.24 -134.553)" fill="#455a64"/>
          </g>
          <g id="Group_5520" data-name="Group 5520" transform="translate(5.237 15.438)">
            <path id="Path_6762" data-name="Path 6762" d="M361.409,167.487a.7.7,0,1,1-.727-.669A.7.7,0,0,1,361.409,167.487Z" transform="translate(-360.013 -166.818)" fill="#263238"/>
          </g>
          <g id="Group_5521" data-name="Group 5521" transform="translate(1.175 15.611)">
            <path id="Path_6763" data-name="Path 6763" d="M352.855,167.851a.7.7,0,1,1-.728-.669A.7.7,0,0,1,352.855,167.851Z" transform="translate(-351.458 -167.182)" fill="#263238"/>
          </g>
          <g id="Group_5523" data-name="Group 5523">
            <g id="Group_5522" data-name="Group 5522">
              <path id="Path_6764" data-name="Path 6764" d="M355.691,141.751l-.4-.027a.157.157,0,0,1-.144-.167,8.055,8.055,0,0,0-.123-2.7c-.7-1.716-2.16-3.869-2.794-3.841s-1.9,2.3-2.459,4.065a8.065,8.065,0,0,0,.106,2.7.158.158,0,0,1-.13.179l-.4.061a.159.159,0,0,1-.179-.135,8.1,8.1,0,0,1-.081-3.018c.3-.949,1.7-4.5,3.109-4.565s3.108,3.364,3.484,4.284a8.069,8.069,0,0,1,.176,3.014A.16.16,0,0,1,355.691,141.751Z" transform="translate(-348.983 -134.302)" fill="#48c2c5"/>
            </g>
          </g>
        </g>
        <g id="Group_5525" data-name="Group 5525" transform="translate(28.389 23.511)">
          <path id="Path_6765" data-name="Path 6765" d="M378.253,103.244c.627.054,1.17.98,2.617,1.409,2.7.8,5.145,2.024,5.9,3.681,1.252,2.74,1.453,3.282,1.9,15.5s.6,47.026.6,47.026a9.436,9.436,0,0,1-4.123.835s.107-38.412-.151-47.051-1.565-12.85-3.436-15.7c-.525-2.385-2.206-3.962-3.3-5.121Z" transform="translate(-378.253 -103.244)" fill="#fafafa"/>
          <path id="Path_6766" data-name="Path 6766" d="M381.566,108.951c1.871,2.847,3.178,7.059,3.436,15.7.031,1.028.057,2.469.082,4.2h0s1.541-7.827,1.267-9.489a26.007,26.007,0,0,0-2.074-5.109,15.443,15.443,0,0,0-1.526-8.062,5.362,5.362,0,0,0-.955-1.244,8.578,8.578,0,0,0-1.164-.791,5.126,5.126,0,0,0-2.377-.913l.015.586C379.36,104.989,381.041,106.566,381.566,108.951Z" transform="translate(-378.253 -103.244)" fill="#ebebeb"/>
        </g>
      </g>
    </g>
    <g id="Character_2" data-name="Character 2" transform="translate(106.148 48.933)">
      <g id="Character-2" data-name="Character">
        <g id="Group_5557" data-name="Group 5557" transform="translate(14.317)">
          <path id="Path_6767" data-name="Path 6767" d="M266.236,106.955c3.585-.055,5.514,1.556,8.146,5.686,2.244,3.522,7.443,11.957,8.906,14.5,1.65,2.868,1.88,4.033.587,6.18-1.23,2.041-12.888,15.507-12.888,15.507l-3.008-5.338,7.492-12.523-8.782-12.974Z" transform="translate(-241.408 -79.597)" fill="#b16668"/>
          <path id="Path_6768" data-name="Path 6768" d="M265.752,106.6a6.845,6.845,0,0,1,5.768,1.915c1.563,1.515,9.611,15.015,9.611,15.015s-1.158,2.769-7.95,6.385l-6.638-9.039Z" transform="translate(-241.153 -79.402)" fill="#27debf"/>
          <path id="Path_6769" data-name="Path 6769" d="M265.752,106.6a6.845,6.845,0,0,1,5.768,1.915c1.563,1.515,9.611,15.015,9.611,15.015s-1.158,2.769-7.95,6.385l-6.638-9.039Z" transform="translate(-241.153 -79.402)" fill="#48c2c5" opacity="0.2"/>
          <g id="Group_5544" data-name="Group 5544" transform="translate(0 55.814)">
            <g id="Group_5534" data-name="Group 5534" transform="translate(20.86 60.337)">
              <g id="Group_5526" data-name="Group 5526">
                <path id="Path_6770" data-name="Path 6770" d="M266.155,315.873c-.072-2.017,1.4-21.9,1.4-21.9l-9.673,7.014c1.985,11.848,2.408,14.642,2.443,16.581h0a1.678,1.678,0,0,0-.052.5c.008,2.3,2.606,3.543,4.632,5.078a37.775,37.775,0,0,0,5.481,3.578c1.472.74,4.462.807,4.832-.14a69.8,69.8,0,0,1-8.013-6.852C266.264,318.7,266.227,317.891,266.155,315.873Z" transform="translate(-257.877 -293.975)" fill="#ffa8a7"/>
              </g>
              <g id="Group_5533" data-name="Group 5533" transform="translate(1.191 23.032)">
                <path id="Path_6771" data-name="Path 6771" d="M280.739,362.1a1.972,1.972,0,0,1-.37,1.986,8.471,8.471,0,0,1-6.194,1.408,10.77,10.77,0,0,1-5.97-2.38c-1.23-1.03-2.955-2.482-4.346-2.789a8.417,8.417,0,0,1-3.108-1.27c-.414-.4-.356-2.175-.356-2.175Z" transform="translate(-260.389 -350.045)" fill="#455a64"/>
                <path id="Path_6772" data-name="Path 6772" d="M261.618,342.486a.493.493,0,0,0-.465.415c-.095.489-.2,1.912-.4,2.715a14.353,14.353,0,0,0-.3,4.313c.17.91,2.276,1.542,3.621,2.055a17.129,17.129,0,0,1,4.36,2.754,12.307,12.307,0,0,0,6.488,2.417c2.371-.017,5.041-.785,5.653-1.884.757-1.36.164-2.148-3.352-3.778-.665-.309-3-1.693-3.8-2.194a13.044,13.044,0,0,1-5.282-5.647,1.341,1.341,0,0,0-.505-.734,1.124,1.124,0,0,0-.684-.062,5.825,5.825,0,0,0-1.692.51c-.472.225-1.141.487-1.131,1.091a2.008,2.008,0,0,0,.132.614c.042.123.075.287-.033.36s-.237-.009-.329-.092a9.177,9.177,0,0,1-.948-1.138,3.438,3.438,0,0,0-.556-.567,5.978,5.978,0,0,1-.6-.39C261.576,343.033,261.628,342.769,261.618,342.486Z" transform="translate(-260.385 -342.486)" fill="#27debf"/>
                <path id="Path_6773" data-name="Path 6773" d="M261.618,342.486a.493.493,0,0,0-.465.415c-.095.489-.2,1.912-.4,2.715a14.353,14.353,0,0,0-.3,4.313c.17.91,2.276,1.542,3.621,2.055a17.129,17.129,0,0,1,4.36,2.754,12.307,12.307,0,0,0,6.488,2.417c2.371-.017,5.041-.785,5.653-1.884.757-1.36.164-2.148-3.352-3.778-.665-.309-3-1.693-3.8-2.194a13.044,13.044,0,0,1-5.282-5.647,1.341,1.341,0,0,0-.505-.734,1.124,1.124,0,0,0-.684-.062,5.825,5.825,0,0,0-1.692.51c-.472.225-1.141.487-1.131,1.091a2.008,2.008,0,0,0,.132.614c.042.123.075.287-.033.36s-.237-.009-.329-.092a9.177,9.177,0,0,1-.948-1.138,3.438,3.438,0,0,0-.556-.567,5.978,5.978,0,0,1-.6-.39C261.576,343.033,261.628,342.769,261.618,342.486Z" transform="translate(-260.385 -342.486)" fill="#fff" opacity="0.9"/>
                <path id="Path_6774" data-name="Path 6774" d="M275.21,364.3c-.613-.506-1.264-.995-1.918-1.431v0s4.134,2.514,5.805,1.373a1.5,1.5,0,0,0,.538-1.913c-.026-.286,2.629-1.508,3.674-1.632h0c.291.161.536.291.688.362,3.516,1.629,4.109,2.418,3.352,3.778-.612,1.1-2.546,1.957-5.611,1.957A12.65,12.65,0,0,1,275.21,364.3Z" transform="translate(-267.164 -352.051)" fill="#27debf" opacity="0.8"/>
                <path id="Path_6775" data-name="Path 6775" d="M275.21,364.3c-.613-.506-1.264-.995-1.918-1.431v0s4.134,2.514,5.805,1.373a1.5,1.5,0,0,0,.538-1.913c-.026-.286,2.629-1.508,3.674-1.632h0c.291.161.536.291.688.362,3.516,1.629,4.109,2.418,3.352,3.778-.612,1.1-2.546,1.957-5.611,1.957A12.65,12.65,0,0,1,275.21,364.3Z" transform="translate(-267.164 -352.051)" fill="#fff" opacity="0.8"/>
                <path id="Path_6776" data-name="Path 6776" d="M273.252,351.932c2.186.875,1.253,1.283.641,1.37s-4.292-2.062-6.536-3.838c-2.341-1.853-3.817-3.877-4.686-4.557-.324-.254-.673-.565-.984-.857.058-.481.1-.92.149-1.149a.493.493,0,0,1,.466-.415c.01.283-.041.547.172.76a5.982,5.982,0,0,0,.6.39,3.439,3.439,0,0,1,.556.567,9.174,9.174,0,0,0,.948,1.138A28.435,28.435,0,0,0,273.252,351.932Z" transform="translate(-261.069 -342.486)" fill="#27debf"/>
                <g id="Group_5532" data-name="Group 5532" transform="translate(5.139 3.692)">
                  <g id="Group_5527" data-name="Group 5527" transform="translate(7.313 4.85)">
                    <path id="Path_6777" data-name="Path 6777" d="M286.828,362.429a.216.216,0,0,1-.168-.353,5.2,5.2,0,0,1,4-1.58.216.216,0,0,1,.192.238.212.212,0,0,1-.238.192A4.819,4.819,0,0,0,287,362.35.214.214,0,0,1,286.828,362.429Z" transform="translate(-286.612 -360.476)" fill="#fafafa"/>
                  </g>
                  <g id="Group_5528" data-name="Group 5528" transform="translate(5.406 3.677)">
                    <path id="Path_6778" data-name="Path 6778" d="M282.813,359.958a.216.216,0,0,1-.168-.354,5.208,5.208,0,0,1,4-1.579.216.216,0,0,1-.046.43,4.826,4.826,0,0,0-3.624,1.422A.215.215,0,0,1,282.813,359.958Z" transform="translate(-282.596 -358.005)" fill="#fafafa"/>
                  </g>
                  <g id="Group_5529" data-name="Group 5529" transform="translate(3.499 2.565)">
                    <path id="Path_6779" data-name="Path 6779" d="M278.795,357.616a.213.213,0,0,1-.137-.049.215.215,0,0,1-.03-.3,5.2,5.2,0,0,1,4-1.579.216.216,0,0,1-.047.43,4.816,4.816,0,0,0-3.624,1.422A.216.216,0,0,1,278.795,357.616Z" transform="translate(-278.578 -355.663)" fill="#fafafa"/>
                  </g>
                  <g id="Group_5530" data-name="Group 5530" transform="translate(1.731 1.295)">
                    <path id="Path_6780" data-name="Path 6780" d="M275.073,354.942a.216.216,0,0,1-.168-.353,5.212,5.212,0,0,1,4.005-1.579.216.216,0,1,1-.047.43,4.827,4.827,0,0,0-3.624,1.422A.214.214,0,0,1,275.073,354.942Z" transform="translate(-274.856 -352.99)" fill="#fafafa"/>
                  </g>
                  <g id="Group_5531" data-name="Group 5531">
                    <path id="Path_6781" data-name="Path 6781" d="M271.426,352.24a.217.217,0,0,1-.169-.351,5.308,5.308,0,0,1,4.374-1.6.216.216,0,0,1-.047.43,4.921,4.921,0,0,0-3.988,1.439A.215.215,0,0,1,271.426,352.24Z" transform="translate(-271.209 -350.262)" fill="#fafafa"/>
                  </g>
                </g>
              </g>
            </g>
            <g id="Group_5543" data-name="Group 5543" transform="translate(0.538 67.239)">
              <g id="Group_5535" data-name="Group 5535" transform="translate(0.167)">
                <path id="Path_6782" data-name="Path 6782" d="M225.187,308.69l-9.761-.177c.145,6.516,1.18,13.749,1.35,19.863.032,1.151-.029,8.943.4,11.31.652,3.558,4.875,3.078,5.1.948s-.272-11.225-.259-12.163c-.037-3.921,1.8-10.539,2.764-17.578C224.833,310.547,225.142,309.027,225.187,308.69Z" transform="translate(-215.426 -308.513)" fill="#ffa8a7"/>
              </g>
              <g id="Group_5542" data-name="Group 5542" transform="translate(0 19.115)">
                <path id="Path_6783" data-name="Path 6783" d="M223.686,377.856a9.685,9.685,0,0,1-.711,4.794,3.077,3.077,0,0,1-3.413,1.6c-1.445-.215-3.345-.988-3.93-2.74a11.478,11.478,0,0,1-.5-4.95Z" transform="translate(-215.075 -363.368)" fill="#455a64"/>
                <path id="Path_6784" data-name="Path 6784" d="M216.629,348.774c-.576.1-.467,2.912-.52,5.74-.058,3.031-.828,4.36-.9,6.848-.084,2.842.189,4.081,1.343,5.679s4.8,2.912,6.272.31c1.2-2.122,1.036-4.324.627-7.113a71.37,71.37,0,0,1-.846-7.118c-.1-2.112-.158-4.163-.686-4.346-.008.312-.006.707-.017,1.015-.009.236.048,1.379-.276,1.423a4.383,4.383,0,0,1-.086-.791.942.942,0,0,0-.227-.662,1.1,1.1,0,0,0-.674-.223,16.626,16.626,0,0,0-1.753-.094c-.292,0-.583.018-.873.051a2.328,2.328,0,0,0-.725.179.519.519,0,0,0-.286.317.925.925,0,0,0,0,.323,2.331,2.331,0,0,1-.015.584c-.013.085-.06.192-.145.18-.069-.01-.1-.091-.112-.16-.037-.339-.018-.589-.042-.984-.011-.183-.006-.434-.022-.617S216.635,348.954,216.629,348.774Z" transform="translate(-215.137 -348.774)" fill="#27debf"/>
                <path id="Path_6785" data-name="Path 6785" d="M216.629,348.774c-.576.1-.467,2.912-.52,5.74-.058,3.031-.828,4.36-.9,6.848-.084,2.842.189,4.081,1.343,5.679s4.8,2.912,6.272.31c1.2-2.122,1.036-4.324.627-7.113a71.37,71.37,0,0,1-.846-7.118c-.1-2.112-.158-4.163-.686-4.346-.008.312-.006.707-.017,1.015-.009.236.048,1.379-.276,1.423a4.383,4.383,0,0,1-.086-.791.942.942,0,0,0-.227-.662,1.1,1.1,0,0,0-.674-.223,16.626,16.626,0,0,0-1.753-.094c-.292,0-.583.018-.873.051a2.328,2.328,0,0,0-.725.179.519.519,0,0,0-.286.317.925.925,0,0,0,0,.323,2.331,2.331,0,0,1-.015.584c-.013.085-.06.192-.145.18-.069-.01-.1-.091-.112-.16-.037-.339-.018-.589-.042-.984-.011-.183-.006-.434-.022-.617S216.635,348.954,216.629,348.774Z" transform="translate(-215.137 -348.774)" fill="#fff" opacity="0.9"/>
                <path id="Path_6786" data-name="Path 6786" d="M215.259,373.5c-.016.41-.089,3.124.689,3.534.843.443,1.064-1.707,1.064-1.707a7.089,7.089,0,0,1,4.611.155c-.095.449.465,1.84,1.175,1.463s.686-3.477.685-3.518c.383,2.674.5,4.812-.661,6.872-1.471,2.6-5.119,1.288-6.272-.31s-1.427-2.836-1.343-5.679C215.216,374.026,215.234,373.757,215.259,373.5Z" transform="translate(-215.137 -361.722)" fill="#27debf"/>
                <path id="Path_6787" data-name="Path 6787" d="M215.259,373.5c-.016.41-.089,3.124.689,3.534.843.443,1.064-1.707,1.064-1.707a7.089,7.089,0,0,1,4.611.155c-.095.449.465,1.84,1.175,1.463s.686-3.477.685-3.518c.383,2.674.5,4.812-.661,6.872-1.471,2.6-5.119,1.288-6.272-.31s-1.427-2.836-1.343-5.679C215.216,374.026,215.234,373.757,215.259,373.5Z" transform="translate(-215.137 -361.722)" fill="#fff" opacity="0.8"/>
                <path id="Path_6788" data-name="Path 6788" d="M218.2,362.537c.09,1.016-.946.774-1.133-.654s.255-4.9,0-7.368c.054-2.828-.056-5.636.52-5.74,0,.035.005.069.007.1l.066,1.427c0,.208,0,.393.028.611.194,2.07.3,6.1.316,8.007A33.4,33.4,0,0,0,218.2,362.537Z" transform="translate(-216.097 -348.774)" fill="#27debf"/>
                <path id="Path_6789" data-name="Path 6789" d="M228.065,362.539a33.3,33.3,0,0,0,.2-3.614c.012-1.9.121-5.875.312-7.958a5.283,5.283,0,0,0,.086-1.176c.01-.287.009-.648.016-.949,0-.021,0-.043,0-.064.382.139.517,1.259.6,2.669.009.819-.018,1.836-.079,3.069-.255,2.463.192,5.96,0,7.388S227.975,363.554,228.065,362.539Z" transform="translate(-221.894 -348.776)" fill="#27debf"/>
                <g id="Group_5541" data-name="Group 5541" transform="translate(1.301 4.245)">
                  <g id="Group_5536" data-name="Group 5536" transform="translate(0.359 8.743)">
                    <path id="Path_6790" data-name="Path 6790" d="M223.461,376.977a.219.219,0,0,1-.081-.016,6.892,6.892,0,0,0-4.519-.014.216.216,0,1,1-.152-.4,7.21,7.21,0,0,1,4.832.017.216.216,0,0,1-.081.417Z" transform="translate(-218.569 -376.13)" fill="#fafafa"/>
                  </g>
                  <g id="Group_5537" data-name="Group 5537" transform="translate(0.095 6.493)">
                    <path id="Path_6791" data-name="Path 6791" d="M223.434,372.238a.224.224,0,0,1-.074-.012,8.519,8.519,0,0,0-5.059-.013.217.217,0,0,1-.139-.41,8.832,8.832,0,0,1,5.346.016.217.217,0,0,1-.074.42Z" transform="translate(-218.015 -371.39)" fill="#fafafa"/>
                  </g>
                  <g id="Group_5538" data-name="Group 5538" transform="translate(0.095 4.269)">
                    <path id="Path_6792" data-name="Path 6792" d="M218.231,367.645a.216.216,0,0,1-.09-.413,7.422,7.422,0,0,1,5.334-.033.216.216,0,0,1,.12.282.219.219,0,0,1-.281.12,7.106,7.106,0,0,0-4.992.026A.213.213,0,0,1,218.231,367.645Z" transform="translate(-218.014 -366.705)" fill="#fafafa"/>
                  </g>
                  <g id="Group_5539" data-name="Group 5539" transform="translate(0.046 2.2)">
                    <path id="Path_6793" data-name="Path 6793" d="M218.128,363.37a.216.216,0,0,1-.093-.412,6.71,6.71,0,0,1,5.438-.06.217.217,0,0,1-.187.391,6.387,6.387,0,0,0-5.065.059A.214.214,0,0,1,218.128,363.37Z" transform="translate(-217.912 -362.347)" fill="#fafafa"/>
                  </g>
                  <g id="Group_5540" data-name="Group 5540">
                    <path id="Path_6794" data-name="Path 6794" d="M218.031,358.7a.216.216,0,0,1-.1-.41,7.006,7.006,0,0,1,5.482,0,.216.216,0,0,1-.178.395,6.684,6.684,0,0,0-5.113,0A.216.216,0,0,1,218.031,358.7Z" transform="translate(-217.814 -357.714)" fill="#ebebeb"/>
                  </g>
                </g>
              </g>
            </g>
            <path id="Path_6795" data-name="Path 6795" d="M219.537,166.892a40,40,0,0,0-3.065,11.5c-1.111,14.424-.512,35.132-.512,35.132-.128,1.507-1.083,4.93-1.725,11.564-.759,7.839.193,34.4.193,34.4s4.69,2.795,8.338-.385c0,0,4.241-36.516,5.224-44.309.858-6.8,3.257-21.518,3.257-21.518l2.807,21.763s-.26,6.12-.079,10.076c.211,4.6,1.5,28.041,1.5,28.041s6.443,2.18,9.322-.915c0,0,.684-32.514.781-38.051.191-10.861,0-30.65-1.761-42.037Z" transform="translate(-213.942 -166.892)" fill="#27debf"/>
            <path id="Path_6796" data-name="Path 6796" d="M219.537,166.892a40,40,0,0,0-3.065,11.5c-1.111,14.424-.512,35.132-.512,35.132-.128,1.507-1.083,4.93-1.725,11.564-.759,7.839.193,34.4.193,34.4s4.69,2.795,8.338-.385c0,0,4.241-36.516,5.224-44.309.858-6.8,3.257-21.518,3.257-21.518l2.807,21.763s-.26,6.12-.079,10.076c.211,4.6,1.5,28.041,1.5,28.041s6.443,2.18,9.322-.915c0,0,.684-32.514.781-38.051.191-10.861,0-30.65-1.761-42.037Z" transform="translate(-213.942 -166.892)" fill="#48c2c5" opacity="0.2"/>
            <path id="Path_6797" data-name="Path 6797" d="M250.39,211.184l1.007-6.924s5.848-.782,8.5-3.272A9.6,9.6,0,0,1,253,205.343l-1.034,6.261.892,18.735Z" transform="translate(-233.085 -184.8)" fill="#263238" opacity="0.2"/>
          </g>
          <g id="Group_5546" data-name="Group 5546" transform="translate(1.649 26.734)">
            <g id="Group_5545" data-name="Group 5545">
              <path id="Path_6798" data-name="Path 6798" d="M245.2,124.3c-.256,2.845-.318,8.409-.318,8.409,1.029,7.275,1.856,14.376,1.856,14.376-10.862,5.8-27.26,1.1-29.322-1.284,1.019-7.123,3.271-11.557,4.736-15.566l-2.72-12.122s4.687-3.9,4.262-11.8l6.419-.666,6.127.173,4.352.309a36.759,36.759,0,0,1,5.69,7.095A8.706,8.706,0,0,1,245.2,124.3Z" transform="translate(-217.414 -105.644)" fill="#48c2c5"/>
            </g>
          </g>
          <path id="Path_6799" data-name="Path 6799" d="M248.8,141.345a7.3,7.3,0,0,1-6.317,1.517,5.839,5.839,0,0,1-4.169-3.933,5.153,5.153,0,0,0,4.267,4.967A5.64,5.64,0,0,0,248.8,141.345Z" transform="translate(-226.745 -96.391)" opacity="0.1"/>
          <g id="Group_5556" data-name="Group 5556" transform="translate(6.288 1.61)">
            <path id="Path_6800" data-name="Path 6800" d="M236.281,74c-.015-1.088-1.527-3.354-2.925-5.891s-2.9-6.627,0-10.458,9.462-6.109,13.325-4.3,4.946,6.229,4.946,6.229Z" transform="translate(-229.555 -52.726)" fill="#37474f"/>
            <path id="Path_6801" data-name="Path 6801" d="M229.757,77.79a.264.264,0,0,0-.005-.027,1.086,1.086,0,0,0-.618-.459,2.333,2.333,0,0,0-.9-.144c-.368.016-1.065.26-1.044.733.025.564.95.623,1.35.6a3.759,3.759,0,0,0,1.021-.158,6.553,6.553,0,0,1-.28,1.957,1.929,1.929,0,0,1-.543.753,1.341,1.341,0,0,1-1.145.241c-.218-.041-.127.28.024.325a1.652,1.652,0,0,0,1.924-.86c.479-.841.3-1.813.506-2.723C230.076,77.88,229.9,77.771,229.757,77.79Zm-1.811.294c-.071-.015-.256-.047-.3-.116-.032-.054.02-.1.064-.146a1.265,1.265,0,0,1,1.223-.192,1.68,1.68,0,0,1,.338.106c.059.026.115.055.171.086.023.013.046.024.069.038l.043.028a2.243,2.243,0,0,1-.949.219A2.287,2.287,0,0,1,227.947,78.084Z" transform="translate(-227.185 -65.558)" fill="#27debf"/>
            <g id="Group_5547" data-name="Group 5547" transform="translate(1.64 3.278)">
              <path id="Path_6802" data-name="Path 6802" d="M248.452,59.838c1.449.741,3.475,2.323,3.162,9.706-.245,5.768-2.353,8.426-3.342,8.933a7.165,7.165,0,0,1-4.13.422V82.18s2.223,5.9.876,8.892a26.82,26.82,0,0,1-4.977-3.471,33.747,33.747,0,0,1-4.244-4.61l-.119-8.735s-1.284.939-3.289-.609c-1.655-1.278-2.326-3.561-1.177-4.879a2.619,2.619,0,0,1,2.438-.812,3.219,3.219,0,0,1,2.217,1.779.616.616,0,0,0,.423.38.46.46,0,0,0,.388-.177,1.179,1.179,0,0,0,.2-.4c.409-1.223.217-2.509.505-3.753a7.162,7.162,0,0,1,1.253-2.657,8.972,8.972,0,0,1,5.744-3.357A11.983,11.983,0,0,1,248.452,59.838Z" transform="translate(-230.639 -59.63)" fill="#b16668"/>
            </g>
            <g id="Group_5548" data-name="Group 5548" transform="translate(8.751 3.279)">
              <path id="Path_6803" data-name="Path 6803" d="M258.988,63.388v0a9.825,9.825,0,0,0-6.469-1.381,18.05,18.05,0,0,0-6.9,2.649,7.631,7.631,0,0,1,.882-1.525,8.975,8.975,0,0,1,5.746-3.358,11.941,11.941,0,0,1,4.072.061A5.034,5.034,0,0,1,258.988,63.388Z" transform="translate(-245.616 -59.631)" fill="#b16668"/>
            </g>
            <g id="Group_5549" data-name="Group 5549" transform="translate(12.107 10.819)">
              <path id="Path_6804" data-name="Path 6804" d="M254.34,76.235a.854.854,0,0,1-.747.92.8.8,0,0,1-.9-.715.855.855,0,0,1,.747-.92A.8.8,0,0,1,254.34,76.235Z" transform="translate(-252.684 -75.513)" fill="#263238"/>
            </g>
            <g id="Group_5550" data-name="Group 5550" transform="translate(13.967 17.053)">
              <path id="Path_6805" data-name="Path 6805" d="M256.642,88.644l2.9.734a1.47,1.47,0,0,1-1.788,1.133A1.566,1.566,0,0,1,256.642,88.644Z" transform="translate(-256.603 -88.644)" fill="#9a4a4d"/>
            </g>
            <g id="Group_5551" data-name="Group 5551" transform="translate(19.54 8.211)">
              <path id="Path_6806" data-name="Path 6806" d="M270.024,71.4l-1.683-.835a.9.9,0,0,1,1.23-.446A.987.987,0,0,1,270.024,71.4Z" transform="translate(-268.341 -70.02)" fill="#263238"/>
            </g>
            <g id="Group_5552" data-name="Group 5552" transform="translate(11.241 8.415)">
              <path id="Path_6807" data-name="Path 6807" d="M252.666,70.982l-1.7.8a.9.9,0,0,1,.415-1.241A.986.986,0,0,1,252.666,70.982Z" transform="translate(-250.861 -70.45)" fill="#263238"/>
            </g>
            <g id="Group_5553" data-name="Group 5553" transform="translate(18.821 10.418)">
              <path id="Path_6808" data-name="Path 6808" d="M268.482,75.389a.854.854,0,0,1-.747.92.8.8,0,0,1-.9-.716.853.853,0,0,1,.746-.919A.8.8,0,0,1,268.482,75.389Z" transform="translate(-266.827 -74.667)" fill="#263238"/>
            </g>
            <g id="Group_5554" data-name="Group 5554" transform="translate(16.245 10.975)">
              <path id="Path_6809" data-name="Path 6809" d="M261.4,75.841l.414,4.723,2.443-.923Z" transform="translate(-261.4 -75.841)" fill="#9a4a4d"/>
            </g>
            <g id="Group_5555" data-name="Group 5555" transform="translate(8.059 19.562)">
              <path id="Path_6810" data-name="Path 6810" d="M251.242,96.912c-2.032-.3-6.34-1.388-7.084-2.984a4.749,4.749,0,0,0,1.656,2.283c1.3.983,5.428,1.862,5.428,1.862Z" transform="translate(-244.158 -93.928)" fill="#9a4a4d"/>
            </g>
          </g>
          <path id="Path_6811" data-name="Path 6811" d="M250.323,57.98s-1.055-1.7-5.878-1.242a18.281,18.281,0,0,0-7.494,2.515,10.732,10.732,0,0,0-3.507,3.479,2.527,2.527,0,0,0-.593-.182,2.615,2.615,0,0,0-2.439.812c-.009.009-.014.019-.023.028a8.215,8.215,0,0,1-1.168-5.624c.513-3.358,3.843-5.676,7.543-7.249,4.372-1.858,9.165-1.383,11.087.427S250.272,57.808,250.323,57.98Z" transform="translate(-221.913 -49.335)" fill="#48c2c5"/>
        </g>
        <g id="Group_5558" data-name="Group 5558" transform="translate(0 27.4)">
          <path id="Path_6812" data-name="Path 6812" d="M206.121,148.86a16.838,16.838,0,0,1-3.552-3.163,11.05,11.05,0,0,0,2.591-.019c1.175-.248,1.4-.742,1.347-1.169-.043-.333-.86-.226-2.155-.633a23.386,23.386,0,0,0-4.543-1.07,3.143,3.143,0,0,1-1.854-1.258,88.2,88.2,0,0,1-4.946-9.249l9.833-12.167c2.453-2.748,5.386-7.678,2.443-12.73-6.754,1.424-6.7,1.258-20.215,21.257-2.333,3.454-2.141,5.08,6.172,15.372a65.639,65.639,0,0,0,5.4,5.933c4.8,4.479,8.269,4.8,10.266,3.589C209.634,151.9,208.746,150.589,206.121,148.86Z" transform="translate(-183.787 -107.233)" fill="#b16668"/>
          <path id="Path_6813" data-name="Path 6813" d="M210.433,107.046c-3.7.169-6.421.693-9.028,3.87-2.786,3.395-9.238,12.721-9.238,12.721s1.731,5.33,8.681,7.118l8.754-11.241S212.8,113.249,210.433,107.046Z" transform="translate(-188.189 -107.046)" fill="#27debf"/>
          <path id="Path_6814" data-name="Path 6814" d="M210.433,107.046c-3.7.169-6.421.693-9.028,3.87-2.786,3.395-9.238,12.721-9.238,12.721s1.731,5.33,8.681,7.118l8.754-11.241S212.8,113.249,210.433,107.046Z" transform="translate(-188.189 -107.046)" fill="#48c2c5" opacity="0.2"/>
        </g>
      </g>
    </g>
    <g id="Character_1" data-name="Character 1" transform="translate(43.158 52.521)">
      <g id="Character-3" data-name="Character">
        <path id="Path_6815" data-name="Path 6815" d="M88.993,115.7c-3.318.093-4.26,1.422-6.262,4.281s-8.805,13.684-8.805,13.684l-9.64,3.7,1.269,5.625s8.159-1.627,12.331-2.482a3.571,3.571,0,0,0,2.622-1.781c.534-.816,5.894-9.247,5.894-9.247Z" transform="translate(-58.033 -87.779)" fill="#e6e6e6"/>
        <path id="Path_6816" data-name="Path 6816" d="M107.835,115.679c-3.139-.785-4.524.968-5.569,2.885-1.673,3.07-2.678,9.334-2.819,20.786-.091,7.364-2.654,16.265-3.11,23.251-.686,10.5-1.018,18.667-1.018,18.667a133.725,133.725,0,0,1,18.727-1.1Z" transform="translate(-74.333 -87.668)" fill="#e0e0e0"/>
        <g id="Group_5561" data-name="Group 5561" transform="translate(12.859 55.212)">
          <path id="Path_6817" data-name="Path 6817" d="M118,252.816s1.881-12.886,1.1-20.44c-.674-6.482-1.627-9.2-1.762-10.669,0,0-1.09-15.214-.793-28.1.141-6.113-.171-12.847-4.519-20.052l-.156-.285c-.387,2.363-4.027,3.892-7.275,4.254q-4.693.522-11.683-1.856c-1.036,6.113-2.217,17.757-3.419,30.451-.588,6.206-.487,11.426-.589,15.414-.139,5.413.353,26.619.353,26.619l-.007.893a8.071,8.071,0,0,1-.963,3.245,19.223,19.223,0,0,1-3.57,5.488c-.466.471-3.673,3.093-4.1,3.661-1.39,1.517,1.354,2.489,3.423,2.283,2.183-.217,5.586-.932,6.587-2.223.667-.86,1.249-3.933,1.934-4.805,2.311-2.94,3.262-4.206,3.31-5.169.087-1.739-.489-2.448-.669-3.437.246-2.047,4.4-12.757,4.679-18.735a62.493,62.493,0,0,0-.5-7.9l3.654-20.776c.81,5.842,2.351,19,2.91,23.192.77,5.77,3.615,15.533,5.414,23.2a39.929,39.929,0,0,1,1.174,6.042c0,.007.042.669.042.676.018.851.087,9.933.36,11.857.57,4.019,4.139,3.634,4.814.421.575-2.734.252-11.269.273-12.314Z" transform="translate(-79.268 -173.227)" fill="#ffa8a7"/>
          <path id="Path_6818" data-name="Path 6818" d="M153,340.7c1,.05.214,3.907.39,6.411.188,2.684,1,4.667,1.178,6.868a8.9,8.9,0,0,1-1.021,5.587c-.752,1.579-4.337,3.658-5.593,1.323a12.882,12.882,0,0,1-1.223-7.452c.244-2.574.462-4.454.579-6.414.1-1.727-1.093-5.832.214-6.037l.042.676c.435.947,4.862,1.738,5.448-.036Z" transform="translate(-114.146 -261.168)" fill="#37474f"/>
          <g id="Group_5560" data-name="Group 5560" transform="translate(0 74.798)">
            <g id="Group_5559" data-name="Group 5559">
              <path id="Path_6819" data-name="Path 6819" d="M109.929,342.426a22.685,22.685,0,0,1-.167,4.676,4.564,4.564,0,0,1-2.535,1.887l-.707-4.8Z" transform="translate(-93.074 -336.87)" fill="#263238"/>
              <path id="Path_6820" data-name="Path 6820" d="M102.364,350.338,98.158,348.8l-.9-3.807,4.7,2.577Z" transform="translate(-88.21 -338.219)"/>
              <path id="Path_6821" data-name="Path 6821" d="M88.3,331.688l.008-.894c-.586.262-2.012,4.87-3.836,8-1.666,2.861-4.829,4.38-5.88,5.614-1.407,1.65,1.146,3.923,5.388,3.162,2.106-.378,5.317-1.61,6.222-2.993s1.282-3.964,2.018-4.979,2.444-2.153,2.837-3.323a6.441,6.441,0,0,0,.1-3.26c-.294-1.085-.539-2.395-.91-2.29l-.052.817c-.3.565-1.341,1.2-3.473,1.245A2.327,2.327,0,0,1,88.3,331.688Z" transform="translate(-78.2 -330.724)" fill="#37474f"/>
            </g>
          </g>
          <path id="Path_6822" data-name="Path 6822" d="M108.352,231.6a44.256,44.256,0,0,0-.354-9.8l3.067-20.433s2.09,19.45,2.44,22.465,5.954,35.534,5.954,35.534c2.867,1.7,6.548,1.159,8.941-.111-.01-13.154-.408-26.33-.887-29.973a62.087,62.087,0,0,0-1.7-7.371s-.3-19.186-.288-26.467-.533-12.156-1.918-15.43a46.688,46.688,0,0,0-3.817-6.831s-1.066,3.592-9.5,3.6-9.364-2.128-9.364-2.128a112.429,112.429,0,0,0-3.293,21.652c-.664,10.5-.816,15.274-1.015,19.956-.169,3.987-.276,8.595-.367,16.651-.069,6.078-.929,19.449-.929,19.449s4.116,2.16,10.915-.3C106.234,252.062,107.931,236.843,108.352,231.6Z" transform="translate(-87.191 -173.183)" fill="#455a64"/>
          <path id="Path_6823" data-name="Path 6823" d="M119.5,215.424,117.83,203.07a10.578,10.578,0,0,1-6.452-3.122,8.487,8.487,0,0,0,4.9,4.672l2.235,10.84-1.632,17.4Z" transform="translate(-95.626 -187.24)" fill="#37474f"/>
        </g>
        <path id="Path_6824" data-name="Path 6824" d="M118.312,117.7l3.973.422c2.636.645,3.825,1.807,4.1,4.143a18.273,18.273,0,0,1-.139,7.614c-.836,3.287-3.059,11.336-3.059,11.336s2.881,7.241,4.247,10.921c-9.371,6.111-20.935,3.7-24.82,0,.329-3.5,1.567-6.752,1.845-9.872,0,0-.2-4.87-.589-6.983-2.964-3.236-2.586-6.33-1.256-8.825,2.457-4.607,6.163-8.656,7.36-8.651Z" transform="translate(-77.637 -88.832)" fill="#27debf"/>
        <path id="Path_6825" data-name="Path 6825" d="M118.312,117.7l3.973.422c2.636.645,3.825,1.807,4.1,4.143a18.273,18.273,0,0,1-.139,7.614c-.836,3.287-3.059,11.336-3.059,11.336s2.881,7.241,4.247,10.921c-9.371,6.111-20.935,3.7-24.82,0,.329-3.5,1.567-6.752,1.845-9.872,0,0-.2-4.87-.589-6.983-2.964-3.236-2.586-6.33-1.256-8.825,2.457-4.607,6.163-8.656,7.36-8.651Z" transform="translate(-77.637 -88.832)" fill="#48c2c5"/>
        <path id="Path_6826" data-name="Path 6826" d="M114.137,111.824c-1.175,0-1.311.2-2.323,1.552-.6.807-4.41,7.09-4.41,7.09s3.031-3.986,5.314-5.193a5.016,5.016,0,0,1,1.414-.562Z" transform="translate(-80.68 -85.744)" fill="#ebebeb"/>
        <path id="Path_6827" data-name="Path 6827" d="M132.669,117.7s-3.273,8.6-4.017,14.44,1.813,23.478,2.21,33.933c.289,7.615,1.008,18.574,1.008,18.574a27.011,27.011,0,0,0,6.965-.217,15.963,15.963,0,0,0,7.237-2.792s-1.9-19.117-2.837-26.549a45.611,45.611,0,0,0-4.641-13.891l4.519-18.712a4.709,4.709,0,0,0-3.192-4.037A29.742,29.742,0,0,0,132.669,117.7Z" transform="translate(-91.769 -88.829)" fill="#fafafa"/>
        <path id="Path_6828" data-name="Path 6828" d="M147.124,139.376s-.612-2.227-1.461-6.028a18.543,18.543,0,0,1-.42-7.669l4.911,7.19-2.894,12.516v0a47.644,47.644,0,0,1,4.327,11.95h0c-2.959-8.374-6.2-10.884-6.2-10.884Z" transform="translate(-100.435 -93.021)" fill="#f5f5f5"/>
        <g id="Group_5562" data-name="Group 5562" transform="translate(40.906 27.784)">
          <path id="Path_6829" data-name="Path 6829" d="M138.5,127.068c-.016-.363.034-1.142.1-2.128.306-4.82.447-9.176-1.181-9.527l-.143.664c1.191.256.795,6.477.646,8.819-.064,1.007-.114,1.8-.1,2.2Z" transform="translate(-137.275 -115.413)" fill="#48c2c5"/>
        </g>
        <path id="Path_6830" data-name="Path 6830" d="M157.668,213.785c.629-1.2.623-2.064,1.6-3.152a3.465,3.465,0,0,0,.857-1.6,11.541,11.541,0,0,0,.234-2.937l5.628.083a35.872,35.872,0,0,1-.057,6.555c-.9,5.046-1.892,7.2-4.014,7.784-3.386.937-4.3-.5-3.214-3.026a12.326,12.326,0,0,0,.941-3.311,6.151,6.151,0,0,1-1.223,1.2,1.2,1.2,0,0,1-1.633-.1C156.629,215.078,157.176,214.723,157.668,213.785Z" transform="translate(-106.603 -135.259)" fill="#ffa8a7"/>
        <path id="Path_6831" data-name="Path 6831" d="M146.177,118.209s3.641-.229,5.77,1.514,3.453,6.614,5.016,11.485a94.132,94.132,0,0,1,3.475,13.024c.43,2.854-.131,17.963-.131,17.963a12.44,12.44,0,0,1-6.508-1.152l-1.522-16.113-6.1-16.549A15.807,15.807,0,0,1,146.177,118.209Z" transform="translate(-100.604 -89.092)" fill="#f0f0f0"/>
        <g id="Group_5569" data-name="Group 5569" transform="translate(0 40.768)">
          <path id="Path_6832" data-name="Path 6832" d="M51.52,142.76l18.043,6.366,4.966,21.47-.4.429-17.154-6.407-5.855-21.429Z" transform="translate(-51.117 -142.76)" fill="#27debf"/>
          <path id="Path_6833" data-name="Path 6833" d="M89.119,156.6l4.966,21.47.4-.429-4.966-21.47Z" transform="translate(-71.076 -149.802)" fill="#48c2c5"/>
          <path id="Path_6834" data-name="Path 6834" d="M51.117,143.663l18.043,6.366.2.843L74.126,171.5l-17.154-6.407Z" transform="translate(-51.117 -143.234)" fill="#48c2c5"/>
          <g id="Group_5563" data-name="Group 5563" transform="translate(4.648 17.438)" opacity="0.2">
            <path id="Path_6835" data-name="Path 6835" d="M64.8,179.544c-.167.422-1.549,1.35-3.552,1.184l-.339-1.24Z" transform="translate(-60.906 -179.488)"/>
          </g>
          <g id="Group_5564" data-name="Group 5564" transform="translate(5.282 3.905)" opacity="0.1">
            <path id="Path_6836" data-name="Path 6836" d="M62.4,151.907l-.149-.72c-.082-.4.977-.189,2.365.466l3.256.986c1.388.655,2.7,1.143,2.783,1.541l.149.72Z" transform="translate(-62.242 -150.985)"/>
          </g>
          <g id="Group_5565" data-name="Group 5565" transform="translate(4.358 1.28)">
            <path id="Path_6837" data-name="Path 6837" d="M60.3,145.747c-.052-.249.359-.2.936-.045l1.039.354s-.424-1.044,2.035-.377c2.706.733,2.764,2.084,2.764,2.084a11.8,11.8,0,0,0,1.3.474c.9.292,1,.468,1.072.72l.133.456-9.2-3.239S60.353,146,60.3,145.747Z" transform="translate(-60.297 -145.456)" fill="#37474f"/>
          </g>
          <g id="Group_5566" data-name="Group 5566" transform="translate(5.059 2.054)">
            <path id="Path_6838" data-name="Path 6838" d="M62.043,147.984c.852.386,1.205.575,1.333,1.188.145.7.176.992.176.992l4.79,1.89s-.26-1.031-.323-1.374.569-.347,1.4.037l-.2-.859-7.447-2.77Z" transform="translate(-61.772 -147.087)" fill="#37474f"/>
          </g>
          <g id="Group_5567" data-name="Group 5567" transform="translate(5.034 3.917)">
            <path id="Path_6839" data-name="Path 6839" d="M61.874,151.932l-.149-.72c-.082-.4.977-.188,2.365.467l3.257.986c1.388.655,2.7,1.143,2.782,1.541l.149.72Z" transform="translate(-61.721 -151.011)" fill="#37474f"/>
          </g>
          <g id="Group_5568" data-name="Group 5568" transform="translate(0.582 7.355)">
            <path id="Path_6840" data-name="Path 6840" d="M53.768,158.67s.639,2.354.806,2.951,3.124,1.959,4.6,2.144c2.829.353,3.15.966,2.47,2.976-.627,1.853-2.47,2.551-5.024,2.25a4.624,4.624,0,0,1-3.5-3.059c-.828-2.367-.382-4.9-.711-6.278S53.047,157.845,53.768,158.67Z" transform="translate(-52.343 -158.251)" fill="#ffa8a7"/>
          </g>
        </g>
        <g id="Group_5572" data-name="Group 5572" transform="translate(24.335)">
          <path id="Path_6841" data-name="Path 6841" d="M148.1,72.729l-2.538,2.076a1.539,1.539,0,0,1,.216-2.227A1.694,1.694,0,0,1,148.1,72.729Z" transform="translate(-124.853 -64.927)" fill="#455a64"/>
          <path id="Path_6842" data-name="Path 6842" d="M118.983,83.285c0-1.591,3.708-3.975,5.622-7.326s.961-8.843-1.664-9.689c0,0-.049-5-6.8-6.333s-8.872-2.823-10.069-3.035-1.438,4.041.147,5.158a9.363,9.363,0,0,1-3.037-1.948c-.983-.95-1.372,4,.747,5.734a3.781,3.781,0,0,0-1.541,3.634,4.338,4.338,0,0,0,3.358,4.037Z" transform="translate(-102.371 -56.894)" fill="#455a64"/>
          <path id="Path_6843" data-name="Path 6843" d="M109.62,72.96c-1.628.706-3.175,3.195-3.152,10.16.02,5.9,1.83,7.4,2.744,7.834s2.7.217,4.434-.05L113.64,94.3s-1.3,1.276-.845,2.082c.429.761,2.143,1.483,4.759.662,2.967-.931,3.646-2.913,3.646-2.913l.059-7.425s1,1.049,2.754-.489c1.45-1.269,1.971-3.447.883-4.642a2.326,2.326,0,0,0-3.749.044l-.907-.478a17.909,17.909,0,0,1-5.729-1.34C110.048,77.526,109.587,75.05,109.62,72.96Z" transform="translate(-104.523 -65.332)" fill="#ffa8a7"/>
          <path id="Path_6844" data-name="Path 6844" d="M135.592,89.17l-.02,3.279a1.54,1.54,0,0,1-1.578-1.587A1.694,1.694,0,0,1,135.592,89.17Z" transform="translate(-118.98 -73.846)" fill="#455a64"/>
          <g id="Group_5570" data-name="Group 5570" transform="translate(3.376 14.995)">
            <path id="Path_6845" data-name="Path 6845" d="M111.049,89.264a.784.784,0,1,1-.813-.787A.8.8,0,0,1,111.049,89.264Z" transform="translate(-109.482 -88.476)" fill="#263238"/>
          </g>
          <g id="Group_5571" data-name="Group 5571" transform="translate(9.509 15.287)">
            <path id="Path_6846" data-name="Path 6846" d="M124.081,89.937a.842.842,0,1,1-.873-.845A.855.855,0,0,1,124.081,89.937Z" transform="translate(-122.399 -89.091)" fill="#263238"/>
          </g>
          <path id="Path_6847" data-name="Path 6847" d="M120.454,101.052l-2.528.786a1.29,1.29,0,0,0,1.616.97A1.45,1.45,0,0,0,120.454,101.052Z" transform="translate(-110.541 -80.086)" fill="#f28f8f"/>
          <path id="Path_6848" data-name="Path 6848" d="M108.348,85.407l2.019-.8a1.043,1.043,0,0,0-1.4-.619A1.125,1.125,0,0,0,108.348,85.407Z" transform="translate(-105.479 -71.082)" fill="#263238"/>
          <path id="Path_6849" data-name="Path 6849" d="M114.045,88.794l.1,4.835-2.6-.58Z" transform="translate(-107.19 -73.648)" fill="#f28f8f"/>
          <path id="Path_6850" data-name="Path 6850" d="M121.585,107.663c1.828-.214,5.6-1.263,6.213-2.8a4.022,4.022,0,0,1-1.352,1.945c-1.139.978-4.863,1.993-4.863,1.993Z" transform="translate(-112.462 -82.09)" fill="#f28f8f"/>
        </g>
        <path id="Path_6851" data-name="Path 6851" d="M132.669,111.847c.479-.1.9.109,1.294.772s1.249,2.062,1.249,2.062.443,4.634,0,5.784c-.383,1-4.621,4.746-4.621,4.746a43.1,43.1,0,0,1,1.145,5.527c.039,1.365-2.627,6.551-2.924,9.2,0,0-.839-8.342-.446-11.335a52.792,52.792,0,0,1,4.281-14.065Z" transform="translate(-91.635 -85.744)" fill="#ebebeb"/>
        <g id="Group_5578" data-name="Group 5578" transform="translate(38.111 39.003)">
          <g id="Group_5573" data-name="Group 5573" transform="translate(0.123 0.119)">
            <path id="Path_6852" data-name="Path 6852" d="M134.555,154.943a3.693,3.693,0,0,1-2.079.6l.058-.472a2.99,2.99,0,0,0,1.6-.445,5.8,5.8,0,0,1-1.192-1.281c-.679-1.051-1.751-8.244-1.094-9.844.545-1.329,2.132-4.211,3.338-4.211h.032c1.209.052,2.566,3.1,3,4.481.518,1.649-1.16,8.726-1.926,9.716a5.812,5.812,0,0,1-1.3,1.175,3.079,3.079,0,0,0,1.56.58l.018.475h-.057A3.8,3.8,0,0,1,134.555,154.943Zm-2.264-11.259c-.6,1.469.423,8.43,1.054,9.4a5.529,5.529,0,0,0,1.234,1.28,5.512,5.512,0,0,0,1.339-1.17c.711-.919,2.324-7.767,1.849-9.282-.582-1.854-1.856-4.118-2.566-4.148h-.015C134.469,139.769,133.022,141.9,132.291,143.684Z" transform="translate(-131.646 -139.293)" fill="#455a64"/>
          </g>
          <g id="Group_5574" data-name="Group 5574" transform="translate(0.283 15.438)">
            <path id="Path_6853" data-name="Path 6853" d="M131.984,172.227a.7.7,0,1,0,.727-.668A.7.7,0,0,0,131.984,172.227Z" transform="translate(-131.984 -171.558)" fill="#263238"/>
          </g>
          <g id="Group_5575" data-name="Group 5575" transform="translate(4.345 15.611)">
            <path id="Path_6854" data-name="Path 6854" d="M140.538,172.591a.7.7,0,1,0,.728-.668A.7.7,0,0,0,140.538,172.591Z" transform="translate(-140.538 -171.922)" fill="#263238"/>
          </g>
          <g id="Group_5577" data-name="Group 5577">
            <g id="Group_5576" data-name="Group 5576">
              <path id="Path_6855" data-name="Path 6855" d="M131.6,146.491l.4-.027a.157.157,0,0,0,.144-.167,8.055,8.055,0,0,1,.123-2.7c.7-1.716,2.16-3.869,2.794-3.841s1.9,2.3,2.459,4.065a8.065,8.065,0,0,1-.106,2.7.158.158,0,0,0,.13.179l.4.061a.159.159,0,0,0,.179-.135,8.089,8.089,0,0,0,.081-3.018c-.3-.949-1.7-4.5-3.109-4.565s-3.108,3.364-3.484,4.284a8.069,8.069,0,0,0-.176,3.014A.16.16,0,0,0,131.6,146.491Z" transform="translate(-131.387 -139.042)" fill="#48c2c5"/>
            </g>
          </g>
        </g>
      </g>
    </g>
    <g id="Icons" transform="translate(37.758 48.569)">
      <g id="Red_Cross" data-name="Red Cross" transform="translate(0 5)">
        <path id="Path_6856" data-name="Path 6856" d="M44.355,73.561v5.9l5.108-2.949v5.9l5.108-2.949v-5.9l5.108-2.949v-5.9l-5.124,2.958.016-5.908-5.108,2.949v5.9Z" transform="translate(-42.165 -60.499)" fill="#48c2c5"/>
        <path id="Path_6857" data-name="Path 6857" d="M41.933,91.111l-2.189-1.264v-5.9l2.189,1.264Z" transform="translate(-39.744 -72.151)" fill="#27debf"/>
        <path id="Path_6858" data-name="Path 6858" d="M47.041,79l-2.189-1.264-5.108,2.949,2.189,1.264Z" transform="translate(-39.744 -68.889)" fill="#27debf"/>
        <path id="Path_6859" data-name="Path 6859" d="M52.692,66.577,50.5,65.313v5.9l2.189,1.264Z" transform="translate(-45.394 -62.364)" fill="#27debf"/>
        <path id="Path_6860" data-name="Path 6860" d="M57.8,60.365,55.611,59.1,50.5,62.05l2.189,1.264Z" transform="translate(-45.394 -59.101)" fill="#27debf"/>
        <path id="Path_6861" data-name="Path 6861" d="M52.692,98.721,50.5,97.457V94.086l2.189-1.264Z" transform="translate(-45.394 -76.812)" fill="#27debf"/>
        <g id="Group_5579" data-name="Group 5579" transform="translate(0 2.949)">
          <path id="Path_6862" data-name="Path 6862" d="M41.933,91.111l-2.189-1.264v-5.9l2.189,1.264Z" transform="translate(-39.744 -75.101)" fill="#48c2c5"/>
          <path id="Path_6863" data-name="Path 6863" d="M52.692,66.577,50.5,65.313v5.9l2.189,1.264Z" transform="translate(-45.394 -65.313)" fill="#48c2c5"/>
          <path id="Path_6864" data-name="Path 6864" d="M52.692,98.721,50.5,97.457V94.086l2.189-1.264Z" transform="translate(-45.394 -79.761)" fill="#48c2c5"/>
        </g>
        <path id="Path_6865" data-name="Path 6865" d="M70.964,66.577l-2.189-1.264-2.928,1.68-.007,2.542Z" transform="translate(-53.45 -62.364)" fill="#27debf"/>
        <g id="Group_5580" data-name="Group 5580" opacity="0.5">
          <path id="Path_6866" data-name="Path 6866" d="M47.041,79l-2.189-1.264-5.108,2.949,2.189,1.264Z" transform="translate(-39.744 -68.889)" fill="#fff"/>
          <path id="Path_6867" data-name="Path 6867" d="M57.8,60.365,55.611,59.1,50.5,62.05l2.189,1.264Z" transform="translate(-45.394 -59.101)" fill="#48c2c5" opacity="0.92"/>
          <path id="Path_6868" data-name="Path 6868" d="M70.964,66.577l-2.189-1.264-2.928,1.68-.007,2.542Z" transform="translate(-53.45 -62.364)" fill="#fff"/>
        </g>
      </g>
      <g id="Pill" transform="translate(188.607)">
        <path id="Path_6869" data-name="Path 6869" d="M437,57.685a1.956,1.956,0,0,0,1.153,1.607,6.15,6.15,0,0,0,5.565,0,1.955,1.955,0,0,0,1.153-1.607V52.51a3.941,3.941,0,1,0-7.881,0Z" transform="translate(-436.992 -48.569)" fill="#f5f5f5"/>
        <path id="Path_6870" data-name="Path 6870" d="M436.992,74.6a3.941,3.941,0,1,0,7.881,0V67.77a1.955,1.955,0,0,1-1.153,1.607,6.15,6.15,0,0,1-5.565,0A1.956,1.956,0,0,1,437,67.77Z" transform="translate(-436.992 -58.654)" fill="#27debf"/>
        <path id="Path_6871" data-name="Path 6871" d="M446.8,76.094a1.508,1.508,0,0,1-1.508-1.508V66.567a5.688,5.688,0,0,1,2.788.665c.081.047.156.1.228.146v7.208A1.508,1.508,0,0,1,446.8,76.094Z" transform="translate(-441.351 -58.022)" fill="#fff" opacity="0.4"/>
        <path id="Path_6872" data-name="Path 6872" d="M437,57.685a1.956,1.956,0,0,0,1.153,1.607,6.15,6.15,0,0,0,5.565,0,1.955,1.955,0,0,0,1.153-1.607V52.51a3.941,3.941,0,1,0-7.881,0Z" transform="translate(-436.992 -48.569)" fill="#f5f5f5"/>
        <path id="Path_6873" data-name="Path 6873" d="M443.732,69.377a6.15,6.15,0,0,1-5.565,0,1.956,1.956,0,0,1-1.153-1.607v.571a1.955,1.955,0,0,0,1.153,1.607,6.15,6.15,0,0,0,5.565,0,1.955,1.955,0,0,0,1.153-1.607V67.77A1.955,1.955,0,0,1,443.732,69.377Z" transform="translate(-437.003 -58.654)" opacity="0.1"/>
        <path id="Path_6874" data-name="Path 6874" d="M443.251,49.328h0a3.936,3.936,0,0,0-6.259,3.182l.01,5.176a1.956,1.956,0,0,0,1.153,1.607,4.679,4.679,0,0,0,1.13.453V51.8C439.285,49.534,442.122,48.7,443.251,49.328Z" transform="translate(-436.992 -48.569)" fill="#e0e0e0"/>
        <path id="Path_6875" data-name="Path 6875" d="M446.8,52.489A1.508,1.508,0,0,0,445.292,54v8.019a5.688,5.688,0,0,0,2.788-.665c.081-.047.156-.1.228-.146V54A1.508,1.508,0,0,0,446.8,52.489Z" transform="translate(-441.351 -50.628)" fill="#fff"/>
        <path id="Path_6876" data-name="Path 6876" d="M441.426,78.507c.075-.009.149-.02.223-.034q.08-.015.158-.033c.058-.013.115-.028.173-.044s.121-.033.18-.053c.03-.009.059-.022.089-.032a3.963,3.963,0,0,0,.739-.353l.019-.011q.125-.078.244-.164h0c-1.129.624-3.966-.206-3.966-2.474V69.83a4.679,4.679,0,0,1-1.13-.453A1.956,1.956,0,0,1,437,67.77l-.01,6.831a3.941,3.941,0,0,0,3.941,3.941c.123,0,.245-.007.366-.019C441.341,78.519,441.384,78.513,441.426,78.507Z" transform="translate(-436.992 -58.654)" opacity="0.1"/>
      </g>
    </g>
  </g>
</svg>
