<svg xmlns="http://www.w3.org/2000/svg" width="283.47" height="341.057" viewBox="0 0 283.47 341.057">
  <g id="onboarding1" transform="translate(-72.782 -1.232)">
    <g id="Group_1927" data-name="Group 1927" transform="translate(85.87 166.017)">
      <ellipse id="Ellipse_21" data-name="Ellipse 21" cx="127.843" cy="8.656" rx="127.843" ry="8.656" transform="translate(0 158.961)" fill="#c0af93" opacity="0.3" style="mix-blend-mode: multiply;isolation: isolate"/>
      <g id="Group_1886" data-name="Group 1886" transform="translate(167.238 49.97)">
        <path id="Path_1741" data-name="Path 1741" d="M260.382,441.635l-6.567-62.285h3.861l6.567,62.285Z" transform="translate(-209.532 -327.678)" fill="#001a2d"/>
        <path id="Path_1742" data-name="Path 1742" d="M213.918,441.635l6.568-62.285h-3.861l-6.568,62.285Z" transform="translate(-210.058 -327.678)" fill="#001a2d"/>
        <path id="Path_1743" data-name="Path 1743" d="M261.474,357.477s7.515-37.19,5.855-44.313-9.612-5.954-14.072,4.75-15.523,39.563-15.523,39.563Z" transform="translate(-209.725 -308.669)" fill="#001a2d"/>
        <rect id="Rectangle_5774" data-name="Rectangle 5774" width="48.786" height="4.54" transform="translate(2.962 48.808)" fill="#d9782c"/>
      </g>
      <g id="Group_1887" data-name="Group 1887" transform="translate(6.748 49.97)">
        <path id="Path_1744" data-name="Path 1744" d="M58.43,441.635,65,379.35H61.137l-6.567,62.285Z" transform="translate(-51.436 -327.678)" fill="#001a2d"/>
        <path id="Path_1745" data-name="Path 1745" d="M104.894,441.635,98.326,379.35h3.861l6.568,62.285Z" transform="translate(-50.911 -327.678)" fill="#001a2d"/>
        <path id="Path_1746" data-name="Path 1746" d="M57.569,357.477s-7.516-37.19-5.857-44.313,9.612-5.954,14.072,4.75,15.524,39.563,15.524,39.563Z" transform="translate(-51.474 -308.669)" fill="#001a2d"/>
        <rect id="Rectangle_5775" data-name="Rectangle 5775" width="48.786" height="4.54" transform="translate(6.096 48.808)" fill="#d9782c"/>
      </g>
      <g id="Group_1904" data-name="Group 1904" transform="translate(9.758)">
        <path id="Path_1747" data-name="Path 1747" d="M142.613,289.081l4.313-2.608,2.178,1.438s8.339-2.793,8.77-2.334-1.636,1.451-1.636,1.451-.32,1.036-.562,1.916-1.816,1.381-1.816,1.381,5.437.8,5.623,1.267-6.266.5-6.266.5,3.666,2.108,3.786,2.6c.061.246-.911.413-5.417-1.542l-6.285,1.195Z" transform="translate(-53.388 -252.475)" fill="#e8935d"/>
        <path id="Path_1748" data-name="Path 1748" d="M142.613,288.513s1.555-2.683,2.658-3.027,5.343-2.461,5.4-2.01-3.657,3.765-3.657,3.765Z" transform="translate(-53.388 -251.907)" fill="#e8935d"/>
        <path id="Path_1749" data-name="Path 1749" d="M159.071,282.439s-6.982.4-6.9,3.32c.075,2.638,4.41,3.986,8.48,3.6l-.884-1.266s-6.055.016-5.987-2.145,5.43-2,5.43-2Z" transform="translate(-53.273 -251.645)" fill="#84312e"/>
        <path id="Path_1750" data-name="Path 1750" d="M157.775,285.516c-.321-.763-7,.689-6.947,1.209s1.693,1.328,1.693,1.328-.922.654-.5,1.359a2.5,2.5,0,0,0,3.24.1c2.352-1.638.876-2.549.876-2.549Z" transform="translate(-53.289 -252.414)" fill="#e8935d"/>
        <path id="Path_1751" data-name="Path 1751" d="M170.165,290.829q-3.985.069-7.956.281c-3.8-2.956-4.524-10.127-4.524-10.127l16.287.012S173.631,287.709,170.165,290.829Z" transform="translate(-53.207 -251.253)" fill="#84312e"/>
        <path id="Path_1752" data-name="Path 1752" d="M146.741,295.39l-2.824,1.843-5.851-3.056,4.6-3.787Z" transform="translate(-53.442 -253.783)" fill="#e8935d"/>
        <path id="Path_1753" data-name="Path 1753" d="M57.823,311.723l.153,27.228,42.6-2.72,2.5-32.6-7.29-14.779-13.657-1.765-7.59,1.12-12.582,1.846a11.672,11.672,0,0,0-6.7,3.177Z" transform="translate(-54.437 -252.895)" fill="#fcf8f0"/>
        <path id="Path_1754" data-name="Path 1754" d="M101.748,327.795l-34.99-2.406-9.7-11.989v5.052l.785,6.875c5.227,6.252,10.354,9.892,13.244,10.383,2.962.5,22.327-1.486,30.237-2.334Z" transform="translate(-54.416 -259.972)" fill="#001a2d"/>
        <path id="Path_1755" data-name="Path 1755" d="M88.067,253.568s2.7,3.651,2.224,7.371-5.3-7.365-5.3-7.365Z" transform="translate(-54.08 -243.88)" fill="#001a2d"/>
        <path id="Path_1756" data-name="Path 1756" d="M72.885,283.993a2.75,2.75,0,0,0-2.143,2.818c.579,2.718,5.8,7.474,7.14,6.955s4.156-3.7,4.156-3.7,6.031,2.269,6.957,1.982-2.374-6.84-5.042-7.721S72.885,283.993,72.885,283.993Z" transform="translate(-54.252 -252.017)" fill="#001a2d"/>
        <g id="Group_1888" data-name="Group 1888" transform="translate(8.538 7.972)">
          <path id="Path_1757" data-name="Path 1757" d="M74.452,278.561,69.76,267.934s-5.64,2.031-6.742-1.412c-.981-3.068,3.656-3.75,6.172-2.5,0,0-6.029-10.464,6.812-12.565S91.316,262.2,91.934,265.306c1.089,5.473-3.876,8.622-7.762,9.27l.917,3.332s.849,2.912-2.957,3.387A8.542,8.542,0,0,1,74.452,278.561Z" transform="translate(-62.884 -251.221)" fill="#e8935d"/>
        </g>
        <g id="Group_1889" data-name="Group 1889" transform="translate(35.772 17.697)">
          <path id="Path_1758" data-name="Path 1758" d="M89.794,265.759s4.954-3.083,6.585.495c1.8,3.934-6.086,3.467-6.086,3.467Z" transform="translate(-89.794 -264.524)" fill="#e8935d"/>
        </g>
        <g id="Group_1890" data-name="Group 1890" transform="translate(32.047 17.583)">
          <path id="Path_1759" data-name="Path 1759" d="M86.114,265.375c-.007.562.617,1.022,1.395,1.028s1.415-.446,1.423-1.008-.617-1.021-1.395-1.027S86.122,264.814,86.114,265.375Z" transform="translate(-86.114 -264.368)" fill="#001a2d"/>
        </g>
        <g id="Group_1891" data-name="Group 1891" transform="translate(23.765 17.697)">
          <path id="Path_1760" data-name="Path 1760" d="M77.93,265.532c-.008.561.616,1.022,1.395,1.027s1.415-.445,1.422-1.007-.616-1.022-1.395-1.028S77.937,264.97,77.93,265.532Z" transform="translate(-77.93 -264.524)" fill="#001a2d"/>
        </g>
        <g id="Group_1892" data-name="Group 1892" transform="translate(27.821 18.327)">
          <path id="Path_1761" data-name="Path 1761" d="M82.316,269.445a.4.4,0,0,1-.356-.181c-.07-.142.031-.3.228-.349.518-.135.45-.617.159-1.768a12.336,12.336,0,0,1-.307-1.461c-.02-.15.133-.284.34-.3a.361.361,0,0,1,.413.246,12.265,12.265,0,0,0,.3,1.414c.282,1.113.526,2.075-.646,2.38A.516.516,0,0,1,82.316,269.445Z" transform="translate(-81.938 -265.386)" fill="#001a2d"/>
        </g>
        <g id="Group_1893" data-name="Group 1893" transform="translate(24.907 22.649)">
          <path id="Path_1762" data-name="Path 1762" d="M82.751,273.107a5.954,5.954,0,0,1-1.03-.088,4.768,4.768,0,0,1-2.6-1.293.231.231,0,0,1,.1-.38.475.475,0,0,1,.526.07,3.938,3.938,0,0,0,2.152,1.072,4.986,4.986,0,0,0,2.592-.238.459.459,0,0,1,.512.111c.1.133.029.3-.154.37A5.876,5.876,0,0,1,82.751,273.107Z" transform="translate(-79.058 -271.298)" fill="#001a2d"/>
        </g>
        <g id="Group_1894" data-name="Group 1894" transform="translate(36.546 19.048)">
          <path id="Path_1763" data-name="Path 1763" d="M91.405,269.528c-.2,0-.372-.118-.378-.266a9.618,9.618,0,0,0-.457-2.556c-.048-.147.079-.294.282-.328a.408.408,0,0,1,.453.2,10.015,10.015,0,0,1,.479,2.665c.005.151-.159.276-.367.281Z" transform="translate(-90.559 -266.372)" fill="#001a2d"/>
        </g>
        <g id="Group_1895" data-name="Group 1895" transform="translate(37.031 19.791)">
          <path id="Path_1764" data-name="Path 1764" d="M91.416,268.311a.381.381,0,0,1-.363-.2c-.058-.145.058-.3.259-.339l1.814-.376a.415.415,0,0,1,.468.187c.058.145-.058.3-.258.338l-1.814.376A.52.52,0,0,1,91.416,268.311Z" transform="translate(-91.038 -267.388)" fill="#001a2d"/>
        </g>
        <g id="Group_1896" data-name="Group 1896" transform="translate(10.178 21.443)">
          <path id="Path_1765" data-name="Path 1765" d="M68.487,271.552a.371.371,0,0,1-.368-.215,1.713,1.713,0,0,0-1.186-1.03,2.752,2.752,0,0,0-1.851.1.471.471,0,0,1-.521-.088c-.109-.128-.055-.3.122-.376a3.77,3.77,0,0,1,2.543-.143,2.356,2.356,0,0,1,1.631,1.417c.045.147-.084.292-.288.325A.519.519,0,0,1,68.487,271.552Z" transform="translate(-64.504 -269.647)" fill="#001a2d"/>
        </g>
        <g id="Group_1897" data-name="Group 1897" transform="translate(11.963 21.773)">
          <path id="Path_1766" data-name="Path 1766" d="M66.645,271.514a.483.483,0,0,1-.187-.037c-.182-.075-.244-.242-.141-.373l.689-.869a.466.466,0,0,1,.516-.1c.181.075.244.242.14.373l-.688.87A.426.426,0,0,1,66.645,271.514Z" transform="translate(-66.268 -270.099)" fill="#001a2d"/>
        </g>
        <path id="Path_1767" data-name="Path 1767" d="M86.729,252.7c-3.866,1.423-12.107-.235-14.849.154s-2.619,3.935-1.717,6.42.606,3.751.031,3.034a6.906,6.906,0,0,0-5.093-1.662s-4.43-5.214-3.372-7.919,4.649-2.19,4.649-2.19c-.566-.4-.139-.943.1-1.488a4.441,4.441,0,0,1,2.4-2.182,7.24,7.24,0,0,1,3.807-.45,2.516,2.516,0,0,1,1.138-3.217,4.74,4.74,0,0,1,4.213,0,7.225,7.225,0,0,1,5.614-2.864,8.085,8.085,0,0,1,6.192,2.155,3.841,3.841,0,0,1,.4,4.956,3.9,3.9,0,0,1,3.172,2.69,3.114,3.114,0,0,1-2.1,3.193C89.842,253.98,88.156,253.4,86.729,252.7Z" transform="translate(-54.361 -240.317)" fill="#001a2d"/>
        <g id="Group_1898" data-name="Group 1898" transform="translate(20.338 14.868)">
          <path id="Path_1768" data-name="Path 1768" d="M74.994,262.047a.534.534,0,0,1-.346-.118.268.268,0,0,1,.058-.458,6.58,6.58,0,0,1,4.878-.6c.234.063.352.251.264.419a.514.514,0,0,1-.58.191,5.451,5.451,0,0,0-3.985.489A.565.565,0,0,1,74.994,262.047Z" transform="translate(-74.544 -260.654)" fill="#001a2d"/>
        </g>
        <g id="Group_1899" data-name="Group 1899" transform="translate(28.735 14.206)">
          <path id="Path_1769" data-name="Path 1769" d="M83.292,261.22a.566.566,0,0,1-.28-.071.27.27,0,0,1-.073-.458,4.665,4.665,0,0,1,4.813-.5.275.275,0,0,1,.109.455.57.57,0,0,1-.628.078,3.521,3.521,0,0,0-3.588.371A.533.533,0,0,1,83.292,261.22Z" transform="translate(-82.841 -259.748)" fill="#001a2d"/>
        </g>
        <path id="Path_1770" data-name="Path 1770" d="M84.012,282.919c-2.529.556-7.867-.678-7.867-.678a16.549,16.549,0,0,0,8.335,2.378Z" transform="translate(-54.186 -251.592)" fill="#001a2d"/>
        <path id="Path_1771" data-name="Path 1771" d="M76.524,269.14a2.06,2.06,0,0,1-2.338,1.2c-1.1-.135-1.848-.891-1.661-1.689a2.059,2.059,0,0,1,2.338-1.2C75.967,267.587,76.711,268.342,76.524,269.14Z" transform="translate(-54.23 -247.609)" fill="#e87555"/>
        <path id="Path_1772" data-name="Path 1772" d="M90.036,269.029a2.06,2.06,0,0,1-2.338,1.2c-1.1-.135-1.847-.891-1.661-1.689a2.059,2.059,0,0,1,2.338-1.2C89.479,267.476,90.223,268.232,90.036,269.029Z" transform="translate(-54.068 -247.579)" fill="#e87555"/>
        <path id="Path_1773" data-name="Path 1773" d="M95.162,451.66l-3.035,6.625s10.582,4.829,11.38,4.5-3.384-5.408-3.384-5.408l2.131-4.718Z" transform="translate(-53.994 -297.155)" fill="#001a2d"/>
        <path id="Path_1774" data-name="Path 1774" d="M127.531,452.975l-3.14,6.887s12.28,1.749,12.859,1.232-4.65-4.136-4.65-4.136l2.044-4.9Z" transform="translate(-53.607 -297.262)" fill="#001a2d"/>
        <path id="Path_1775" data-name="Path 1775" d="M57.944,356.289l42.758-4.734s52.857,1.438,56.17,6.468S139.648,426.9,139.648,426.9l-15.587-.36,13.8-56.7Z" transform="translate(-54.405 -270.233)" fill="#84312e"/>
        <path id="Path_1776" data-name="Path 1776" d="M120.417,359.746l9.351,11.053,7.343,1.246c.82-2.081,2.391-5.591,1.42-6.7C135.092,361.41,120.417,359.746,120.417,359.746Z" transform="translate(-53.654 -272.436)" fill="#001a2d"/>
        <path id="Path_1777" data-name="Path 1777" d="M97.024,300.944l4,6.289s.972,1.228,2.535,2.959c.256.281.525.58.822.88v.01c3.787,4.032,10.089,9.877,15.242,9.877,5.323,0,27.721-25.045,27.721-25.045l-9.3-3.564-18.918,17.079s-13.871-15.482-15.057-16.457A15.927,15.927,0,0,0,95.31,289.5Z" transform="translate(-53.956 -253.544)" fill="#fcf8f0"/>
        <path id="Path_1778" data-name="Path 1778" d="M102.157,314.411l.36-4.694,3.413,8.48A30.077,30.077,0,0,1,102.157,314.411Z" transform="translate(-53.874 -258.981)" fill="#001a2d"/>
        <path id="Path_1779" data-name="Path 1779" d="M57.944,357.2c-.607,13.224,5.827,12.636,17.943,13.737s39.137.905,39.137.905L91.708,426.435l14.829,2.608s33.247-57.967,30.438-64.667S90.8,354.948,90.8,354.948Z" transform="translate(-54.405 -271.145)" fill="#84312e"/>
        <g id="Group_1903" data-name="Group 1903" transform="translate(18.985 15.187)">
          <g id="Group_1900" data-name="Group 1900" transform="translate(0 0.331)">
            <path id="Path_1780" data-name="Path 1780" d="M77.7,268.042c-2.479,0-4.5-1.458-4.5-3.25s2.017-3.248,4.5-3.248,4.5,1.457,4.5,3.248S80.183,268.042,77.7,268.042Zm0-5.627c-1.816,0-3.292,1.067-3.292,2.377s1.477,2.378,3.292,2.378S81,266.1,81,264.792,79.518,262.415,77.7,262.415Z" transform="translate(-73.207 -261.544)" fill="#fcf8f0"/>
          </g>
          <g id="Group_1901" data-name="Group 1901" transform="translate(9.547)">
            <path id="Path_1781" data-name="Path 1781" d="M87.137,267.588c-2.479,0-4.5-1.457-4.5-3.248s2.017-3.249,4.5-3.249,4.5,1.458,4.5,3.249S89.618,267.588,87.137,267.588Zm0-5.626c-1.815,0-3.292,1.067-3.292,2.378s1.478,2.377,3.292,2.377,3.292-1.067,3.292-2.377S88.953,261.962,87.137,261.962Z" transform="translate(-82.641 -261.091)" fill="#fcf8f0"/>
          </g>
          <g id="Group_1902" data-name="Group 1902" transform="translate(7.788 2.709)">
            <path id="Path_1782" data-name="Path 1782" d="M81.505,266.029a.77.77,0,0,1-.351-.081.365.365,0,0,1-.139-.608,2.04,2.04,0,0,1,1.259-.539,2.209,2.209,0,0,1,1.414.406.357.357,0,0,1,.021.616.777.777,0,0,1-.852.015.616.616,0,0,0-.862.009A.694.694,0,0,1,81.505,266.029Z" transform="translate(-80.902 -264.797)" fill="#fcf8f0"/>
          </g>
        </g>
        <path id="Path_1783" data-name="Path 1783" d="M55.268,295.49c-3.675,4.617,5.653,30.87,14.8,33.958s41.79-5.116,41.79-5.116l-.639-8.21L78.362,319.1Z" transform="translate(-54.447 -255.155)" fill="#fcf8f0"/>
        <path id="Path_1784" data-name="Path 1784" d="M78.18,322.93,69.6,309.717l9.651,12.141L96.2,321.3Z" transform="translate(-54.265 -258.981)" fill="#001a2d"/>
        <path id="Path_1785" data-name="Path 1785" d="M110.548,326.733s5.615-.753,7.85-.89,7.849,1.779,7.849,2.463-3.68,4.188-3.68,4.188H111.187Z" transform="translate(-53.773 -263.316)" fill="#e8935d"/>
      </g>
      <g id="Group_1918" data-name="Group 1918" transform="translate(103.865 11.937)">
        <g id="Group_1905" data-name="Group 1905" transform="translate(0 40.931)">
          <path id="Path_1786" data-name="Path 1786" d="M178.8,320.732l-4.313-2.608-2.178,1.438s-8.34-2.793-8.77-2.333,1.636,1.451,1.636,1.451.32,1.036.562,1.916,1.816,1.381,1.816,1.381-5.437.8-5.623,1.267,6.266.5,6.266.5-3.665,2.108-3.786,2.6c-.061.246.911.413,5.417-1.542L176.115,326Z" transform="translate(-147.263 -313.856)" fill="#e8935d"/>
          <path id="Path_1787" data-name="Path 1787" d="M178.7,320.164s-1.555-2.683-2.658-3.027-5.344-2.461-5.4-2.01,3.657,3.765,3.657,3.765Z" transform="translate(-147.158 -313.288)" fill="#e8935d"/>
          <path id="Path_1788" data-name="Path 1788" d="M162.246,314.09s6.982.4,6.9,3.32c-.076,2.638-4.41,3.987-8.48,3.6l.883-1.265s6.055.016,5.987-2.145-5.43-2-5.43-2Z" transform="translate(-147.278 -313.026)" fill="#fcf8f0"/>
          <path id="Path_1789" data-name="Path 1789" d="M163.523,317.167c.321-.763,7,.689,6.947,1.209s-1.693,1.329-1.693,1.329.921.653.5,1.359a2.5,2.5,0,0,1-3.239.1c-2.352-1.638-.876-2.549-.876-2.549Z" transform="translate(-147.244 -313.795)" fill="#e8935d"/>
          <path id="Path_1790" data-name="Path 1790" d="M151.243,322.48q3.986.069,7.957.282c3.8-2.956,4.523-10.128,4.523-10.128l-16.286.012S147.778,319.36,151.243,322.48Z" transform="translate(-147.437 -312.634)" fill="#fcf8f0"/>
          <path id="Path_1791" data-name="Path 1791" d="M174.578,327.041,180.3,328.3l3.7-4.055-5.344-2.2Z" transform="translate(-147.111 -315.164)" fill="#e8935d"/>
        </g>
        <path id="Path_1792" data-name="Path 1792" d="M219.4,303.395l-13.919,16.044-25.324-5.025-2.884,6.874s25.612,7.227,33.969,5.353,31.984-26.456,29.72-30.662c-.848-1.576-8.682.754-13.978,2.546A17.329,17.329,0,0,0,219.4,303.395Z" transform="translate(-147.079 -267.083)" fill="#9f501c"/>
        <path id="Path_1793" data-name="Path 1793" d="M224.435,321.691l-.151-4.314s-2.7-4.434-1.891-6.956c0,0-2.163,4.414.258,7l-.424,5.747Z" transform="translate(-146.547 -271.108)" fill="#001a2d"/>
        <path id="Path_1794" data-name="Path 1794" d="M246.617,295.539s8.7,2.476,14.944,6.675L256.3,336.02l-31.29-1.915-.725-20.814s-6.07-6.066.463-10.9C230.658,298.014,234.559,294.079,246.617,295.539Z" transform="translate(-146.545 -267.022)" fill="#9f501c"/>
        <path id="Path_1795" data-name="Path 1795" d="M201.175,444.852l.752,2.521s-15.913,2.806-16.3,2.142,7.809-5.7,7.809-5.7l4.112-.982Z" transform="translate(-146.978 -306.72)" fill="#001a2d"/>
        <path id="Path_1796" data-name="Path 1796" d="M220.571,453.176l.9,2.125s-14.973,3.922-15.531,3.325,6.845-5.85,6.845-5.85l3.536-1.482Z" transform="translate(-146.734 -308.994)" fill="#001a2d"/>
        <path id="Path_1797" data-name="Path 1797" d="M225.593,348.407s-45.425.352-51.826,10.048c-6.072,9.2,19.819,59.967,19.819,59.967l7.742,1.033-9.573-56s65.353,7.5,65.984-13.8Z" transform="translate(-147.132 -281.324)" fill="#e8935d"/>
        <path id="Path_1798" data-name="Path 1798" d="M189.32,378.625a15.785,15.785,0,0,0-1.209-13.587c-10.032,3.6-8.315,5.288,4,27.174Z" transform="translate(-147.027 -285.796)" fill="#001a2d"/>
        <path id="Path_1799" data-name="Path 1799" d="M229.9,353.509s-41.677,1.594-46.719,11.7c-2.833,5.677,29.882,60.315,29.882,60.315l7.787.4-19.341-56.553s16.328.226,32.6-.2c15.012-.4,24.074-6.352,20.766-19.2Z" transform="translate(-147.01 -281.743)" fill="#e8935d"/>
        <path id="Path_1800" data-name="Path 1800" d="M225.411,348.407s-21.85.173-37.378,3.513c7.517,1.13,15.191,3.059,19.264,7.164a10.479,10.479,0,0,1,2.912,5.574c19.37.505,46.94-1.2,47.349-15Z" transform="translate(-146.949 -281.324)" fill="#fcf8f0"/>
        <path id="Path_1801" data-name="Path 1801" d="M257.38,350.113l-27.722,3.435a209.678,209.678,0,0,0-26.83,2.972,16.7,16.7,0,0,1,4.291,3.021c2.8,2.824,3.427,6.359,3.022,9.923,7.343.02,18.058-.009,27.493-.257C252.645,368.811,260.689,362.962,257.38,350.113Z" transform="translate(-146.771 -281.783)" fill="#fcf8f0"/>
        <path id="Path_1802" data-name="Path 1802" d="M222.019,283.586a1.641,1.641,0,0,1-1.437-1.876,19.582,19.582,0,0,0,.624-2.314c.031-1.584-1.867-3.032-1.416-4.583.316-1.082,1.708-1.866,2.062-2.942.439-1.337-.836-2.75-.34-4.077.484-1.3,2.415-1.975,3.58-3.019,1.791-1.6,1.811-4.122,4.115-5.337,1.649-.87,3.909-.752,5.822-1.267,1.418-.382,2.636-1.11,4.1-1.392,2.233-.431,4.558.254,6.671.931a42.627,42.627,0,0,1,9.048,3.683c2.659,1.616,4.737,3.9,4.906,6.4.11,1.641-.583,3.342.146,4.9.574,1.225,2.01,2.36,1.623,3.623-.357,1.167-2.186,1.914-2.376,3.1-.149.928.758,1.754,1.13,2.649.586,1.4-.317,3.058-2.073,3.8Z" transform="translate(-146.569 -256.645)" fill="#fcf8f0"/>
        <g id="Group_1906" data-name="Group 1906" transform="translate(82.002 2.748)">
          <path id="Path_1803" data-name="Path 1803" d="M247.974,287.479l3.092-11.005s5.952,1.588,6.534-1.945c.519-3.147-4.225-3.465-6.555-2.02,0,0,4.452-10.948-8.716-12.039s-13.7,11.963-13.852,15.122c-.263,5.563,5.181,8.325,9.169,8.666l-.414,3.407s-.41,2.981,3.47,3.157A7.963,7.963,0,0,0,247.974,287.479Z" transform="translate(-228.466 -260.405)" fill="#e8935d"/>
        </g>
        <g id="Group_1907" data-name="Group 1907" transform="translate(76.716 13.718)">
          <path id="Path_1804" data-name="Path 1804" d="M229.884,276.356s-5.423-2.7-6.516,1.014c-1.2,4.079,6.616,2.991,6.616,2.991Z" transform="translate(-223.242 -275.41)" fill="#e8935d"/>
        </g>
        <g id="Group_1908" data-name="Group 1908" transform="translate(92.432 13.065)">
          <path id="Path_1805" data-name="Path 1805" d="M241.6,275.421c.092.562-.464,1.072-1.241,1.138a1.391,1.391,0,0,1-1.577-.9c-.092-.561.464-1.071,1.241-1.138A1.392,1.392,0,0,1,241.6,275.421Z" transform="translate(-238.771 -274.517)" fill="#001a2d"/>
        </g>
        <g id="Group_1909" data-name="Group 1909" transform="translate(85.459 12.895)">
          <path id="Path_1806" data-name="Path 1806" d="M234.708,275.188c.092.561-.463,1.072-1.241,1.138a1.39,1.39,0,0,1-1.576-.9c-.093-.562.462-1.072,1.241-1.138A1.39,1.39,0,0,1,234.708,275.188Z" transform="translate(-231.881 -274.284)" fill="#001a2d"/>
        </g>
        <g id="Group_1910" data-name="Group 1910" transform="translate(89 14.431)">
          <path id="Path_1807" data-name="Path 1807" d="M237.383,279.894a.581.581,0,0,1-.1-.009,2.508,2.508,0,0,1-1.756-.852c-.343-.574-.088-1.366.8-2.493a.519.519,0,0,1,.578-.115c.2.084.273.271.158.417-.906,1.146-.913,1.692-.76,1.948.139.23.49.38,1.177.5.228.04.367.205.313.369A.42.42,0,0,1,237.383,279.894Z" transform="translate(-235.38 -276.385)" fill="#001a2d"/>
        </g>
        <g id="Group_1911" data-name="Group 1911" transform="translate(89.847 17.963)">
          <path id="Path_1808" data-name="Path 1808" d="M236.641,282.8c-.227,0-.415-.13-.423-.3s.175-.31.409-.316a5.462,5.462,0,0,0,2.914-.889.547.547,0,0,1,.6.009.251.251,0,0,1-.012.432,6.512,6.512,0,0,1-3.472,1.059Z" transform="translate(-236.218 -281.217)" fill="#001a2d"/>
        </g>
        <g id="Group_1912" data-name="Group 1912" transform="translate(81.708 14.838)">
          <path id="Path_1809" data-name="Path 1809" d="M228.655,280.2a.392.392,0,0,1-.421-.281,9.929,9.929,0,0,1,.076-2.71.413.413,0,0,1,.471-.268c.232.02.4.173.369.34a9.484,9.484,0,0,0-.072,2.589c.018.169-.156.316-.389.329Z" transform="translate(-228.175 -276.941)" fill="#001a2d"/>
        </g>
        <g id="Group_1913" data-name="Group 1913" transform="translate(79.651 15.764)">
          <path id="Path_1810" data-name="Path 1810" d="M228.438,279.052a.628.628,0,0,1-.073,0l-1.872-.233c-.23-.028-.385-.187-.345-.353a.429.429,0,0,1,.49-.249l1.872.233c.23.029.385.187.345.354A.408.408,0,0,1,228.438,279.052Z" transform="translate(-226.142 -278.208)" fill="#001a2d"/>
        </g>
        <g id="Group_1914" data-name="Group 1914" transform="translate(105.188 15.247)">
          <path id="Path_1811" data-name="Path 1811" d="M251.8,279.666h-.047c-.232-.018-.4-.17-.374-.337a2.18,2.18,0,0,1,1.439-1.57,3.875,3.875,0,0,1,2.606-.058c.211.072.3.255.2.407a.5.5,0,0,1-.565.143,2.721,2.721,0,0,0-1.829.041,1.534,1.534,0,0,0-1.01,1.1A.4.4,0,0,1,251.8,279.666Z" transform="translate(-251.377 -277.502)" fill="#001a2d"/>
        </g>
        <g id="Group_1915" data-name="Group 1915" transform="translate(106.166 15.681)">
          <path id="Path_1812" data-name="Path 1812" d="M253.587,279.523a.492.492,0,0,1-.342-.126l-.822-.815a.256.256,0,0,1,.094-.427.531.531,0,0,1,.591.067l.821.815a.256.256,0,0,1-.093.427A.536.536,0,0,1,253.587,279.523Z" transform="translate(-252.343 -278.095)" fill="#001a2d"/>
        </g>
        <g id="Group_1916" data-name="Group 1916" transform="translate(93.457 9.459)">
          <path id="Path_1813" data-name="Path 1813" d="M244.653,270.722a.54.54,0,0,1-.233-.051,5.535,5.535,0,0,0-4.023-.173.5.5,0,0,1-.568-.135c-.105-.151-.021-.335.187-.41a6.6,6.6,0,0,1,4.871.209c.194.094.248.284.118.424A.483.483,0,0,1,244.653,270.722Z" transform="translate(-239.784 -269.584)" fill="#001a2d"/>
        </g>
        <g id="Group_1917" data-name="Group 1917" transform="translate(85.343 9.429)">
          <path id="Path_1814" data-name="Path 1814" d="M236.391,270.787a.509.509,0,0,1-.3-.091,3.573,3.573,0,0,0-3.622-.088.543.543,0,0,1-.6-.027.251.251,0,0,1,.037-.431,4.64,4.64,0,0,1,4.782.116.25.25,0,0,1,0,.432A.517.517,0,0,1,236.391,270.787Z" transform="translate(-231.766 -269.543)" fill="#001a2d"/>
        </g>
        <path id="Path_1815" data-name="Path 1815" d="M237.121,292.51c2.615.357,8.19-1.254,8.19-1.254a15.71,15.71,0,0,1-7.977,2.989Z" transform="translate(-146.359 -265.954)" fill="#001a2d"/>
        <path id="Path_1816" data-name="Path 1816" d="M241.611,280.111a2.227,2.227,0,0,0,2.521,1.016c1.084-.222,1.714-1.037,1.407-1.821a2.228,2.228,0,0,0-2.521-1.016C241.933,278.512,241.3,279.328,241.611,280.111Z" transform="translate(-146.306 -262.451)" fill="#e87555"/>
        <path id="Path_1817" data-name="Path 1817" d="M229.538,280.426a2.229,2.229,0,0,0,2.522,1.016c1.084-.222,1.714-1.037,1.407-1.821a2.227,2.227,0,0,0-2.521-1.016C229.861,278.828,229.231,279.643,229.538,280.426Z" transform="translate(-146.452 -262.536)" fill="#e87555"/>
        <path id="Path_1818" data-name="Path 1818" d="M258.415,270.786c-1.868-3.547-5.776-6.439-8.766-9.506a9.09,9.09,0,0,0-5.151-2.344l-4.976-.282-4.493,1.278-3.593,1.575-2.942,3.746-.85,3.066,1.13,3.1a11.424,11.424,0,0,1,4.721-7.925c-.263.743.932,1.5,1.9,1.812a6.456,6.456,0,0,1,2.7,1.159c.686.743.394,1.848,1.264,2.483,1.171.855,3.406.158,4.723.893,1.582.884.427,2.853,1.5,4.074.7.8,2.2,1.072,3,1.824,1.294,1.207.316,3.085,1.382,4.4a4.568,4.568,0,0,0,4.094,1.1,6.5,6.5,0,0,0,3.628-2.011C259.936,276.794,259.859,273.526,258.415,270.786Z" transform="translate(-146.473 -257.186)" fill="#fcf8f0"/>
        <path id="Path_1819" data-name="Path 1819" d="M224.656,346.419s-6.347,1.165-8.02,2.7-1.075,8.02.241,8.192,5.548.26,5.586-.259-1.158-1.018-1.158-1.018,2.753-.193,2.274-.971-2.155-.605-2.155-.605,3.929-1.339,4.059-2.788l2.729-.6Z" transform="translate(-146.618 -280.789)" fill="#e8935d"/>
        <path id="Path_1820" data-name="Path 1820" d="M261.553,304.784c3.747,3.162,8.908,26.483,5.534,31.072s-38.954,4.022-38.954,4.022l-5.75-5.743L256.1,329.46Z" transform="translate(-146.537 -269.592)" fill="#9f501c"/>
        <path id="Path_1821" data-name="Path 1821" d="M239.791,336.333l16.1-2.232V322.04l-1.438,11.309Z" transform="translate(-146.327 -274.233)" fill="#001a2d"/>
      </g>
      <g id="Group_1925" data-name="Group 1925" transform="translate(185.376 129.922)">
        <g id="Group_1924" data-name="Group 1924">
          <path id="Path_1822" data-name="Path 1822" d="M238.759,434.076s-9.057,4.551-10.632,15.076,10.106,13.3,10.106,13.3l1.708-3.625s-9.845.176-9.058-9.1,10.239-12.559,10.239-12.559Z" transform="translate(-227.981 -422.348)" fill="#b25d2b"/>
          <g id="Group_1919" data-name="Group 1919" transform="translate(9.235 6.384)">
            <path id="Path_1823" data-name="Path 1823" d="M257.814,460.482l24.437-.213-2.937-10.847c-4.576-18.964-36.419-22.057-39.649-22.641-4.651-.841-1.542,33.7-1.542,33.7Z" transform="translate(-237.106 -426.765)" fill="#8f3e2b"/>
          </g>
          <g id="Group_1923" data-name="Group 1923" transform="translate(11.512)">
            <g id="Group_1922" data-name="Group 1922">
              <g id="Group_1920" data-name="Group 1920" transform="translate(10.619)">
                <path id="Path_1824" data-name="Path 1824" d="M265.474,423.853s-3.542-5.58-7.645-5.813-7.98,6.119-7.98,6.119h1.065s4.815-4.331,6.748-4.454,6.859,4.148,6.859,4.148Z" transform="translate(-249.849 -418.033)" fill="#d9782c"/>
              </g>
              <path id="Path_1825" data-name="Path 1825" d="M239.638,426.457a1.422,1.422,0,0,0-.273-.006l-.009-.017s24.128-1.509,35.795-.556a27.229,27.229,0,0,1,7.565,23.22H250.378C250.378,443.092,244.29,427.3,239.638,426.457Z" transform="translate(-239.356 -420.058)" fill="#b25d2b"/>
              <g id="Group_1921" data-name="Group 1921" transform="translate(35.352 2.265)">
                <path id="Path_1826" data-name="Path 1826" d="M274.731,424.686l1.435-2.757-1.877-.8Z" transform="translate(-274.289 -421.131)" fill="#d9782c"/>
              </g>
            </g>
          </g>
        </g>
        <path id="Path_1827" data-name="Path 1827" d="M260.288,441.91c0,.5,3.034,3.424,3.919,3.424s3.666-3.013,3.54-3.47-2.907-3.378-4.182-3.378C262.418,438.486,260.288,441.408,260.288,441.91Zm4.547-1.857c.8-.089,1.23,3.248.424,3.217S264.284,440.113,264.835,440.053Zm-2.165.122c.8-.088,1.231,3.249.425,3.218S262.119,440.236,262.67,440.175Z" transform="translate(-227.593 -423.534)" fill="#8f3e2b"/>
      </g>
      <g id="Group_1926" data-name="Group 1926" transform="translate(67.171 68.391)">
        <rect id="Rectangle_5776" data-name="Rectangle 5776" width="46.371" height="2.984" transform="translate(27.665 92.753)" fill="#001a2d"/>
        <rect id="Rectangle_5777" data-name="Rectangle 5777" width="4.539" height="91.024" transform="translate(48.581 2.663)" fill="#001a2d"/>
        <rect id="Rectangle_5778" data-name="Rectangle 5778" width="101.702" height="4.54" transform="translate(0 0.787)" fill="#d9782c"/>
        <path id="Path_1828" data-name="Path 1828" d="M146.434,334.654H131.8l-1.205-.787h17.046Z" transform="translate(-110.946 -333.867)" fill="#fcf8f0"/>
        <path id="Path_1829" data-name="Path 1829" d="M196.293,334.654H181.657l-1.205-.787H197.5Z" transform="translate(-110.347 -333.867)" fill="#fcf8f0"/>
      </g>
    </g>
    <g id="Group_1929" data-name="Group 1929" transform="translate(72.782 1.232)">
      <path id="Rectangle_5779" data-name="Rectangle 5779" d="M12.153,0h.292A12.153,12.153,0,0,1,24.6,12.153V36.006a0,0,0,0,1,0,0H0a0,0,0,0,1,0,0V12.153A12.153,12.153,0,0,1,12.153,0Z" transform="translate(0 97.423)" fill="#fcf8f0"/>
      <g id="Group_1928" data-name="Group 1928" transform="translate(11.184)">
        <rect id="Rectangle_5780" data-name="Rectangle 5780" width="2.41" height="99.144" fill="#fcf8f0"/>
      </g>
      <rect id="Rectangle_5781" data-name="Rectangle 5781" width="24.598" height="1.231" transform="translate(0 129.22)" fill="#ebe5dc"/>
    </g>
    <g id="Group_1945" data-name="Group 1945" transform="translate(132.303 22.812)">
      <g id="Group_1942" data-name="Group 1942" transform="translate(21.514)">
        <g id="Group_1931" data-name="Group 1931">
          <path id="Path_1830" data-name="Path 1830" d="M154.972,90.076c.012,6.017,1.189,20.974,11.864,30.185H186.5c10.675-9.211,11.851-24.168,11.863-30.185Z" transform="translate(-154.972 -46.705)" fill="#fcf8f0"/>
          <path id="Path_1831" data-name="Path 1831" d="M154.972,89.317s23.342-4.644,43.386,0A90.341,90.341,0,0,1,154.972,89.317Z" transform="translate(-154.972 -45.946)" fill="#9f501c"/>
          <g id="Group_1930" data-name="Group 1930" transform="translate(9.014)">
            <path id="Path_1832" data-name="Path 1832" d="M163.928,63.943c.36,1.727,2.685,2.918,3.371,4.593.574,1.4-.078,2.881-.392,4.321-.237,1.083-.66,2.221-.147,3.069h12c-.718-1.274.013-3,.93-4.285,1.106-1.549,2.562-3.186,2.07-4.893-.45-1.559-2.407-2.646-3.311-4.1-2.03-3.257,1.679-7.267-.279-10.546-.916-1.534-2.937-2.612-3.878-4.139a6.784,6.784,0,0,1-.541-4.519,7.334,7.334,0,0,0-.414-4.533,4.93,4.93,0,0,0-4.924-2.239,3.828,3.828,0,0,0-3.074,4.646c.353,1.869,1.459,3.716,1.018,5.574-.435,1.83-2.342,3.463-2.087,5.31.236,1.706,2.28,3.076,2.47,4.784C167.013,59.435,163.423,61.516,163.928,63.943Z" transform="translate(-163.879 -32.326)" fill="#8ec73e"/>
            <path id="Path_1833" data-name="Path 1833" d="M195.625,38.8c.9-1.644,1.8-3.4,1.339-5.14a4.6,4.6,0,0,0-5.222-2.809,4.234,4.234,0,0,0-3.214,3.607c-.261,1.5-.131,3.1-1.105,4.44-1.322,1.82-4.384,2.743-5.586,4.6-1.96,3.036,1.976,6.785.151,9.864-1.082,1.825-3.911,2.85-5.068,4.65-1.5,2.331.263,5.055.012,7.617-.209,2.139-1.806,4.058-2.742,6.093a6.377,6.377,0,0,0-.607,2.627h14.07a5.675,5.675,0,0,0,1.055-4.857c-.553-2-2.212-4.134-.831-5.908.954-1.227,3.111-1.8,3.963-3.062,1.515-2.251-1.98-5.029-.58-7.319.9-1.469,3.5-2.1,4.358-3.584,1.055-1.817-1-3.746-1.435-5.691C193.787,42.184,194.723,40.441,195.625,38.8Z" transform="translate(-163.762 -30.75)" fill="#67a23e"/>
            <path id="Path_1834" data-name="Path 1834" d="M170.71,56.48l1.43,13.451-3.154-2.8a.616.616,0,0,0-.676-.049.287.287,0,0,0-.069.488l4.028,3.571.674,6.335h.962L172.58,65.016l3.28-5.86c.1-.178-.018-.38-.265-.451a.558.558,0,0,0-.624.191l-2.554,4.566-2.207-20.756a.433.433,0,0,0-.514-.319c-.265.015-.462.182-.442.372l1.346,12.66-2.806-2.029a.617.617,0,0,0-.678,0,.284.284,0,0,0,0,.491Z" transform="translate(-163.842 -33.879)" fill="#67a23e"/>
            <path id="Path_1835" data-name="Path 1835" d="M192.41,36.411a.519.519,0,0,0-.586.248L182.54,62.421l-.367-2.578c-.027-.19-.274-.322-.525-.309s-.456.189-.429.38l.63,4.424L177.693,75.87h.992l9.078-25.19,3.9-2.029a.29.29,0,0,0,.107-.484.609.609,0,0,0-.67-.077l-2.953,1.54,4.611-12.8C192.819,36.649,192.666,36.46,192.41,36.411Z" transform="translate(-163.713 -32.27)" fill="#8ec73e"/>
          </g>
        </g>
        <g id="Group_1934" data-name="Group 1934" transform="translate(46.984 31.266)">
          <g id="Group_1932" data-name="Group 1932" transform="translate(0 20.399)">
            <path id="Path_1836" data-name="Path 1836" d="M208.828,127.653l-2.787-10.09h37.375l-2.787,10.09Z" transform="translate(-201.342 -105.763)" fill="#fcf8f0"/>
            <path id="Path_1837" data-name="Path 1837" d="M248.977,107.385l-3.948,9.123a126.31,126.31,0,0,1-40.967-.327l-2.664-8.8Z" transform="translate(-201.398 -103.026)" fill="#ddd2c2"/>
            <path id="Path_1838" data-name="Path 1838" d="M248.977,105.781s-22.983-9.809-47.579,0c0,0,6.688,4.782,23.789,4.5C241.312,110.008,248.977,105.781,248.977,105.781Z" transform="translate(-201.398 -101.422)" fill="#d9782c"/>
          </g>
          <g id="Group_1933" data-name="Group 1933" transform="translate(10.038)">
            <path id="Path_1839" data-name="Path 1839" d="M223.654,99.42h3.208s4.092-13.484-1.527-25.9C225.334,73.518,220.737,86.7,223.654,99.42Z" transform="translate(-211.18 -73.518)" fill="#67a23e"/>
            <path id="Path_1840" data-name="Path 1840" d="M221.749,101.951s-.662-12.037-10.432-19.022a40.481,40.481,0,0,0,8.391,19.022Z" transform="translate(-211.317 -76.049)" fill="#67a23e"/>
            <path id="Path_1841" data-name="Path 1841" d="M223.725,100.452s1.844-13.827-6.88-23.1c0,0-1.286,14.487,4.838,23.1Z" transform="translate(-211.252 -74.55)" fill="#8ec73e"/>
            <path id="Path_1842" data-name="Path 1842" d="M226.17,100.452s-1.843-13.827,6.88-23.1c0,0,1.286,14.487-4.838,23.1Z" transform="translate(-211.141 -74.55)" fill="#8ec73e"/>
            <path id="Path_1843" data-name="Path 1843" d="M228.185,101.951s.662-12.037,10.432-19.022a40.481,40.481,0,0,1-8.391,19.022Z" transform="translate(-211.114 -76.049)" fill="#67a23e"/>
          </g>
        </g>
        <g id="Group_1941" data-name="Group 1941" transform="translate(96.471 3.747)">
          <path id="Path_1844" data-name="Path 1844" d="M258.1,71.8h16.24l6.823,37.276c.607,3.321-2.969,6.27-7.607,6.27H258.886c-4.638,0-8.215-2.948-7.607-6.27Z" transform="translate(-250.287 -45.537)" fill="#fcf8f0"/>
          <path id="Path_1845" data-name="Path 1845" d="M274.253,70.947a23.191,23.191,0,0,1-6.446,1.45c-.422.037-.857.064-1.3.074a.029.029,0,0,1-.038,0c-.37.018-.742.018-1.125.009h-.153c-.269-.009-.537-.019-.819-.037-.154-.01-.32-.028-.474-.037a19.1,19.1,0,0,1-5.883-1.459,12.73,12.73,0,0,1,3.249-1.57,15.383,15.383,0,0,1,1.586-.425,1.054,1.054,0,0,1,.167-.037c.166-.037.332-.065.5-.093.192-.037.384-.064.588-.083h.026c.115-.019.218-.037.332-.046.243-.028.486-.047.742-.056a1.95,1.95,0,0,1,.333-.009,5.456,5.456,0,0,1,.678-.018c.089,0,.178.009.268.009.333.01.69.037,1.048.075a.318.318,0,0,1,.09.009c.384.037.767.093,1.176.167A17.157,17.157,0,0,1,274.253,70.947Z" transform="translate(-250.205 -44.678)" fill="#ddd2c2"/>
          <g id="Group_1940" data-name="Group 1940">
            <g id="Group_1935" data-name="Group 1935" transform="translate(6.019 5.55)">
              <path id="Path_1846" data-name="Path 1846" d="M265.36,65.72h-.153c-.269-.01-.537-.019-.819-.037-.256-1.21-.537-2.421-.857-3.622q-.824-3.076-1.893-6.106c-.166-.48-.345-.97-.524-1.45a79.126,79.126,0,0,0-4.054-9.063c-.243-.5-.511-1-.78-1.5-.1-.185.026-.387.269-.453a.563.563,0,0,1,.626.194c.281.508.55,1.026.819,1.543q1.649,3.172,2.993,6.43v.009c.2.453.384.915.563,1.377a72.139,72.139,0,0,1,2.494,7.372c.153.508.293,1.007.434,1.515.077.286.154.572.206.859C264.938,63.77,265.169,64.74,265.36,65.72Z" transform="translate(-256.245 -43.467)" fill="#67a23e"/>
            </g>
            <g id="Group_1936" data-name="Group 1936">
              <path id="Path_1847" data-name="Path 1847" d="M250.3,38.747s.2,6.169,7.176,4.59,1.437-6.947,1.437-6.947l-.8,2.39-4.134-2.9-.15,3.993Z" transform="translate(-250.298 -35.875)" fill="#fcf8f0"/>
            </g>
            <g id="Group_1937" data-name="Group 1937" transform="translate(13.822 12.109)">
              <path id="Path_1848" data-name="Path 1848" d="M264.255,65.544c-1.069-4.6.769-9.517,4.9-13.106C269.989,57.148,268.185,61.739,264.255,65.544Z" transform="translate(-263.956 -52.438)" fill="#67a23e"/>
            </g>
            <g id="Group_1938" data-name="Group 1938" transform="translate(2.723 12.403)">
              <path id="Path_1849" data-name="Path 1849" d="M262.308,58.594c-4.123-.718-7.694-2.924-9.319-5.753C257.272,53.7,260.559,55.643,262.308,58.594Z" transform="translate(-252.989 -52.841)" fill="#67a23e"/>
            </g>
            <g id="Group_1939" data-name="Group 1939" transform="translate(10.76 7.695)">
              <path id="Path_1850" data-name="Path 1850" d="M264.277,46.4c-2.678,2-3.883,4.973-3.122,7.7C264.012,51.986,264.988,49.311,264.277,46.4Z" transform="translate(-260.93 -46.401)" fill="#67a23e"/>
            </g>
          </g>
        </g>
      </g>
      <rect id="Rectangle_5782" data-name="Rectangle 5782" width="223.95" height="4.929" transform="translate(0 73.925)" fill="#d9782c"/>
      <rect id="Rectangle_5783" data-name="Rectangle 5783" width="112.829" height="4.929" transform="translate(111.121 121.84)" fill="#d9782c"/>
      <path id="Path_1851" data-name="Path 1851" d="M259.146,182.957s7.056-4.373-2.92-4.373-2.921,4.373-2.921,4.373l-3.591,9.392h13.022Z" transform="translate(-132.319 -70.509)" fill="#fcf8f0"/>
      <path id="Path_1852" data-name="Path 1852" d="M275.775,182.957s7.056-4.373-2.921-4.373-2.92,4.373-2.92,4.373l-3.591,9.392h13.022Z" transform="translate(-132.12 -70.509)" fill="#fcf8f0"/>
      <g id="Group_1943" data-name="Group 1943" transform="translate(155.431 83.756)">
        <path id="Path_1853" data-name="Path 1853" d="M296.261,151.634v-4.847h-3.833v4.847a9.858,9.858,0,0,1-2.565,6.461h0a9.863,9.863,0,0,0-2.564,6.461V183.8h14.093V164.557a9.865,9.865,0,0,0-2.565-6.462h0A9.858,9.858,0,0,1,296.261,151.634Z" transform="translate(-287.299 -145.713)" fill="#dad0bf"/>
        <path id="Path_1854" data-name="Path 1854" d="M296.8,147h-4.992c-.643,0-1.163-.376-1.163-.84h0c0-.464.52-.841,1.163-.841H296.8c.643,0,1.164.376,1.164.841h0C297.965,146.623,297.444,147,296.8,147Z" transform="translate(-287.259 -145.318)" fill="#dad0bf"/>
      </g>
      <g id="Group_1944" data-name="Group 1944" transform="translate(174.525 83.756)">
        <path id="Path_1855" data-name="Path 1855" d="M315.128,151.634v-4.847H311.3v4.847a9.862,9.862,0,0,1-2.564,6.461h0a9.863,9.863,0,0,0-2.564,6.461V183.8h14.093V164.557a9.86,9.86,0,0,0-2.565-6.462h0A9.858,9.858,0,0,1,315.128,151.634Z" transform="translate(-306.166 -145.713)" fill="#dad0bf"/>
        <path id="Path_1856" data-name="Path 1856" d="M315.668,147h-4.992c-.643,0-1.163-.376-1.163-.84h0c0-.464.52-.841,1.163-.841h4.992c.643,0,1.164.376,1.164.841h0C316.832,146.623,316.311,147,315.668,147Z" transform="translate(-306.126 -145.318)" fill="#dad0bf"/>
      </g>
    </g>
  </g>
</svg>
